<?xml version="1.0" encoding="utf-8" ?><svg xmlns="http://www.w3.org/2000/svg" xmlns:xlink="http://www.w3.org/1999/xlink" width="2180" height="1396" viewBox="0 0 2180 1396"><path fill="#FDEBAF" transform="scale(1.00005 1.00009)" d="M1308.02 49.2535C1304.09 58.6001 1297.62 69.1049 1292.55 77.8915C1269.15 118.424 1238.78 154.42 1204.82 186.477C1174.67 214.933 1142.92 242.146 1121.11 277.953C1118.76 281.016 1113.06 294.117 1110.5 295.549C1089.64 307.207 1069.53 318.657 1049.8 332.239C1007.6 361.283 969.605 395.808 937.78 436.011C922.038 455.897 908.798 476.434 896.09 498.307C913.993 483.451 929.045 479.487 949.1 471.189C947.152 474.455 944.465 478.361 942.254 481.468C923.612 507.667 913.99 536.544 903.281 566.502C915.521 553.914 930.225 543.102 946.281 535.918C931.203 565.622 920.792 605.528 919.782 638.839C927.894 624.669 940.695 612.356 953.654 602.658C943.034 631.694 938.283 681.275 943.203 711.995C950.504 699.184 951.919 684.792 964.503 671.476C965.063 673.531 966.125 677.868 967.643 679.206C969.986 675.961 974.552 653.982 975.878 648.594C966.302 656.919 955.249 671.183 948.399 681.789C948.771 672.772 949.6 662.487 950.433 653.552C951.207 650.379 951.812 642.744 955.314 642.236C956.558 642.841 957.382 643.331 958.798 643.429C972.664 630.13 981.999 622.907 1000.71 616.379C984.067 640.453 968.961 684.36 966.828 713.467C965.641 729.679 966.807 742.58 966.375 757.83C970.051 750.024 972.545 741.968 975.937 734.242C984.234 715.344 993.926 693.41 1005.24 676.12C1021.37 707.04 1047.5 738.231 1069.59 765.2C1096.73 798.337 1124.53 831.666 1155.3 861.504C1177.54 883.061 1203.21 903.506 1228.54 921.409C1238.25 928.275 1261.35 943.233 1272.28 947.278L1272.69 947.554C1274.41 948.734 1274.62 948.938 1276.03 950.45L1276.48 950.345L1276.39 947.979C1276.93 939.399 1275.17 929.091 1275.99 920.625C1275.97 917.558 1275 911.834 1274.67 908.533C1273.62 898.082 1271.69 886.831 1271.45 876.368C1278.28 895.116 1286.17 913.235 1294.1 931.554C1296.68 937.533 1299.19 937.773 1305.17 939.914C1303.89 937.3 1302.81 934.44 1301.66 931.704C1269.78 855.821 1239.67 777.63 1228.02 695.722C1226.09 682.162 1224.92 664.239 1234.3 653.184C1247.03 638.198 1268.04 628.788 1287.63 627.981C1299.84 628.215 1313.18 632.299 1324.78 635.639C1366.34 647.593 1406.3 663.973 1444.86 683.456C1455.64 688.902 1464.98 695.622 1477.52 693.978C1515.58 688.989 1549.36 665.348 1572.85 635.806C1541.72 601.038 1495.54 571.993 1461.42 539.49C1451.14 529.696 1439.71 521.734 1430.28 510.698C1418.5 496.912 1414.38 480.744 1409.19 463.865C1395.66 419.921 1378.02 400.789 1344.21 370.613C1391.89 285.068 1435.43 179.244 1435 80.2447C1412.19 129.375 1376.59 171.408 1337.41 208.445C1322.39 222.362 1306.74 235.702 1291.97 249.879C1283.44 258.076 1275.43 267.673 1268.05 276.895C1289.64 198.538 1308.55 132.166 1308.02 49.2535ZM1294.71 324.434C1294.19 326.259 1293.69 328.822 1292.5 330.177L1291.41 330.312C1280.52 323.288 1269.19 316.78 1257.68 310.836C1266.87 291.799 1275.42 276.567 1290.33 261.073C1295.66 255.538 1301.81 250.44 1307.22 244.963C1316.46 242.258 1312.86 251.126 1312.86 256.09C1312.85 267.699 1311.03 276.026 1307.75 287.093C1302.23 300.549 1298.56 310.319 1294.71 324.434Z"/><path fill="#3E204D" transform="scale(1.00005 1.00009)" d="M1300.63 77.849C1297.41 82.3025 1295.09 87.4857 1292.22 92.197C1266.62 134.241 1232.44 171.155 1196.39 204.41C1178.99 220.467 1161.29 235.895 1146.53 254.502C1120.33 287.129 1102.31 325.006 1085.23 362.935C1083.41 366.983 1081.01 371.49 1078.73 375.33C959.096 577.059 1112.53 805.056 1264.37 939.065C1266.08 940.578 1271.66 945.333 1272.28 947.278L1272.69 947.554C1274.41 948.734 1274.62 948.938 1276.03 950.45L1276.48 950.345L1276.39 947.979C1274.24 944.606 1272.36 926.528 1271.78 921.539C1267.91 917.745 1262.54 913.911 1258.31 910.09C1249.71 902.32 1240.49 894.386 1232.43 886.033C1193.65 845.755 1156.43 796.683 1145.42 740.895C1135 688.042 1163.2 625.717 1220.24 618.343C1226.46 617.538 1234.03 617.095 1239.96 616.031L1240.4 615.949C1228.97 614.785 1217.75 613.85 1206.3 612.941C1206.11 610.319 1206.03 607.462 1205.91 604.815C1198.71 600.515 1191.52 595.944 1184.39 591.503C1158.82 610.18 1137.71 635.336 1126.47 665.105C1115.69 693.652 1115.44 721.612 1116.02 751.566C1114.04 748.728 1110.28 743.543 1109.61 740.282C1107.57 730.314 1108.91 711.655 1110.31 701.722C1117.41 651.404 1139.86 617.328 1179.52 586.993C1173.65 582.468 1152.74 567.163 1146.98 565.268C1145.92 564.322 1143.73 562.827 1142.5 561.935C1144.23 559.668 1146.14 557.712 1148.08 555.627C1139.48 550.504 1133.06 546.232 1125.39 539.737C1131.83 533.917 1138.85 528.263 1145.88 523.17C1161.32 511.991 1176.21 500.791 1192.21 490.427C1159.31 481.138 1127.79 482.973 1097.08 498.492C1075.67 509.315 1059.62 522.822 1046.08 542.586C1046.03 540.152 1045.8 534.291 1046.58 532.392C1052.69 517.476 1078.64 500.212 1092.47 493.394C1127.82 475.954 1159.87 473.29 1197.35 485.893C1209.64 478.407 1218.18 472.921 1232.06 468.447C1215.42 458.815 1195.7 440.609 1177.32 437.865C1142.93 432.732 1103.5 442.382 1073.29 459.178C1064.93 463.826 1058.33 468.861 1050.71 474.08L1052.74 464.759C1075.49 446.574 1103.3 436.905 1131.67 432.268C1144.48 430.174 1176.85 428.011 1187.85 432.986C1200.85 438.86 1225.49 457.353 1237.95 466.485L1242.87 464.496C1227.06 450.421 1207 438.125 1190.21 424.919C1173.08 411.439 1162.19 404.338 1152.67 383.965C1162.92 390.082 1175.22 398.608 1185.36 405.231L1240.01 440.923C1248.98 446.904 1258.48 454.858 1267.88 459.974C1271.94 462.182 1282.71 464.116 1288.17 465.627C1310.04 471.679 1336.49 476.57 1356.11 488.137C1358.04 489.273 1364.84 496.782 1366.51 498.741C1367.81 498.045 1368.68 497.425 1369.9 496.605C1368.12 493.678 1364.96 488.296 1362.82 485.896C1345.14 466.072 1312.1 463.215 1290.59 449.764C1280.05 443.176 1266.05 431.52 1256.17 423.652C1243.54 413.596 1229.77 402.97 1217.99 392.117C1221.11 383.299 1224.24 374.603 1227.87 365.946C1258.56 292.549 1281.74 214.881 1294.31 136.279C1297.43 116.815 1299.08 97.4391 1300.63 77.849Z"/><path fill="#FDEBAF" transform="scale(1.00005 1.00009)" d="M1146.98 565.268C1145.15 564.606 1143.75 564.074 1141.97 563.281C1116.7 586.753 1097.04 610.095 1084.33 642.742C1080.44 652.741 1077.72 662.62 1074.56 672.848L1077.56 681.939L1079.45 686.963C1087.73 646.088 1102.25 611.141 1132.91 581.725C1135.28 579.447 1147.7 567.903 1146.98 565.268Z"/><path fill="#FDEBAF" transform="scale(1.00005 1.00009)" d="M1289.28 112.714C1285.52 115.307 1273.62 135.602 1269.62 140.695C1263.76 148.843 1257.44 156.569 1251.32 164.526C1216.5 209.826 1171.59 247.827 1158.56 306.098C1153.76 327.577 1151.9 345.982 1149.83 367.572C1162.15 348.286 1174.94 330.404 1188.16 311.759C1196.26 300.723 1204.01 289.98 1211.69 278.657C1206.25 305.206 1206.58 341.489 1207.07 368.507C1217.64 336.928 1233.91 304.684 1246.28 273.354C1267.49 219.656 1278.97 169.141 1289.28 112.714Z"/><path fill="#FDEBAF" transform="scale(1.00005 1.00009)" d="M1148.91 517.898C1129.17 521.506 1095.09 549.536 1081.71 565.164C1072.97 575.383 1059.13 591.313 1055.5 604.666C1055.12 606.058 1055.6 614.495 1055.69 616.617C1057.56 614.953 1064.4 599.834 1066.26 596.597C1085.83 562.525 1118.5 542.153 1148.91 517.898Z"/><path fill="#3E204D" transform="scale(1.00005 1.00009)" d="M1105.37 306.226C1031.4 346.576 963.63 404.058 917.915 475.361C938.165 467.057 951.383 462.324 972.38 456.136C943.396 488.243 935.752 503.511 918.593 543.019C932.917 534.956 947.1 525.645 962.787 520.293C952.161 540.893 943.042 558.69 936.446 581.191C933.038 592.816 931.014 604.198 927.918 615.601C940.553 603.428 951.167 594.985 966.276 585.657C960.654 602.563 950.652 635.859 950.433 653.552C951.207 650.379 951.812 642.744 955.314 642.236C956.558 642.841 957.382 643.331 958.798 643.429C963.752 608.46 975.595 578.253 998.951 551.257C977.233 558.598 959.551 566.198 943.807 583.862C953.663 546.623 975.534 509.935 1008.4 488.83C980.053 491.754 964.38 497.137 940.504 512.751C959.484 480.357 989.748 444.716 1024.59 428.936C996.007 429.077 983.555 429.821 956.549 440.49C990.885 402.988 1023.43 371.091 1066.86 343.779C1076.44 337.758 1084.65 331.921 1094.86 326.683C1098.32 319.725 1101.64 313.036 1105.37 306.226Z"/><path fill="#3E204D" transform="scale(1.00005 1.00009)" d="M1228.12 740.522L1223.95 739.982C1227.61 789.309 1239.15 823.81 1257.17 870.171C1262.15 882.977 1272.98 908.249 1275.99 920.625C1275.97 917.558 1275 911.834 1274.67 908.533C1273.62 898.082 1271.69 886.831 1271.45 876.368C1256.3 838.29 1243.86 798.614 1232.65 759.21C1230.85 752.886 1229.36 746.977 1228.12 740.522Z"/><path fill="#3E204D" transform="scale(1.00005 1.00009)" d="M1369.9 496.605C1368.68 497.425 1367.81 498.045 1366.51 498.741C1371.54 504.472 1376.22 509.721 1381.47 515.261C1377.68 508.843 1373.93 502.878 1369.9 496.605Z"/><path fill="#3E204D" transform="scale(1.00005 1.00009)" d="M1224.76 723.943C1222.91 726.927 1224.6 731.126 1223.92 735.714L1223.95 739.982L1228.12 740.522L1224.76 723.943Z"/><path fill="#3E204D" transform="scale(1.00005 1.00009)" d="M1223.69 715.17C1223.48 721.01 1223.1 730.152 1223.92 735.714C1224.6 731.126 1222.91 726.927 1224.76 723.943C1224.45 721.071 1224.18 718.001 1223.69 715.17Z"/><path fill="#3E204D" transform="scale(1.00005 1.00009)" d="M1255.5 317.729C1254.52 318.531 1252.33 325.628 1251.77 327.309C1284.4 343.235 1313.87 367.303 1340.87 391.318C1351.14 400.453 1361.16 409.132 1369.82 419.911C1377.41 429.348 1381.45 437.232 1386.27 448.163C1395.43 468.915 1399.02 497.303 1412.69 515.143C1422.45 527.871 1439.23 541.521 1451.47 552.009C1477.8 574.557 1505.24 595.905 1531.84 618.164C1530.05 618.087 1526.92 617.923 1525.23 618.207C1498.12 622.766 1513.81 647.241 1523.02 658.768L1522.51 659.589C1519.19 664.935 1516.81 667.519 1511.02 670.237C1498.79 675.906 1486.37 675.124 1474.65 668.698C1454.99 657.923 1444.59 639.346 1434.32 620.401C1431.12 614.493 1427.92 606.677 1422.07 603.089C1396.74 587.528 1369.13 576.447 1341.89 564.811C1317.22 553.909 1296.27 536.77 1275.25 520.235C1266.84 513.628 1258.83 506.405 1249.77 500.746C1229 504.841 1195.05 523.564 1181.46 539.641C1183.82 545.462 1187.63 548.673 1192.1 552.87L1191.65 552.636C1187.58 550.455 1175.59 541.35 1180.57 536.417C1198.21 518.928 1226.12 502.813 1250.27 497.752C1272 511.84 1289.4 530.426 1315.99 538.386C1331.19 542.935 1351.02 546.585 1365.78 539.154C1352.58 541.229 1345.02 539.942 1332.21 537.273C1326.34 535.402 1320.1 533.518 1314.63 530.712C1290.93 518.543 1273.92 497.047 1259.14 475.598C1209.46 484.248 1176.96 510.902 1137.41 539.876C1144.2 544.672 1153.33 549.881 1160.59 554.461L1152.16 559.658C1166.23 568.918 1179.73 578.889 1193.51 588.554C1201.85 594.411 1208.21 599.137 1214.84 606.987C1235.6 612.36 1259.45 613.861 1280.81 617.863C1345.76 630.034 1406.32 655.342 1464.84 685.363C1474.34 690.236 1485.59 685.946 1495.03 683.119C1523.72 674.303 1543.33 657.527 1563.6 636.529C1555.11 625.488 1531.89 607.242 1520.46 597.923L1465.67 552.32C1452.22 540.924 1439.39 530.286 1427.12 517.515C1410.49 500.593 1406.63 476.87 1398.73 455.236C1390.33 432.212 1382.29 418.448 1365.04 400.766C1333.27 368.203 1295.57 339.291 1255.5 317.729Z"/><path fill="#FDEBAF" transform="scale(1.00005 1.00009)" d="M1534.17 623.646C1525.63 622.755 1522.79 623.04 1515.77 627.858L1531.59 639.783C1531.55 646.235 1531.09 650.481 1530.17 656.814L1534.26 654.666C1544.92 648.646 1549.41 644.661 1557.46 635.66C1550.18 628.366 1544.11 625.297 1534.17 623.646Z"/><path fill="#FDEBAF" transform="scale(1.00005 1.00009)" d="M1368.74 609.603L1366.82 609.639C1367.67 611.372 1385.62 617.032 1389.05 618.776C1406.28 627.544 1422.07 638.235 1436.5 651.106L1438.53 652.563L1438.64 652.28C1421.55 633.21 1393.52 615.349 1368.74 609.603Z"/><defs><linearGradient id="gradient_0" gradientUnits="userSpaceOnUse" x1="438.80399" y1="894.64001" x2="416.83701" y2="619.79602"><stop offset="0" stop-color="#3E204D"/><stop offset="1" stop-color="#6F2588"/></linearGradient></defs><path fill="url(#gradient_0)" transform="scale(1.00005 1.00009)" d="M1269.49 623.415C1244.19 620.828 1212.31 621.914 1190.62 636.354C1171.3 649.213 1157.1 674.476 1152.9 696.995C1144.96 739.46 1171.31 790.966 1194.46 825.038C1210.53 849.656 1236.51 878.353 1258.4 898.356C1258.74 898.834 1261.42 901.59 1261.98 902.193C1257.09 889.188 1252.74 875.878 1247.91 862.814C1241.23 844.751 1234.39 826.345 1228.92 807.891C1219.41 775.855 1215.57 742.234 1215.86 708.88C1216.01 694.421 1216.51 678.277 1220.9 664.492C1226.26 647.68 1238.56 637.595 1254.07 630.247C1259.14 627.846 1264.44 625.931 1269.49 623.415Z"/><path fill="#FDEBAF" transform="scale(1.00005 1.00009)" d="M1198.18 824.265C1196.49 824.481 1196.11 824.477 1194.46 825.038C1210.53 849.656 1236.51 878.353 1258.4 898.356C1257.44 896.079 1258.51 896.04 1257.29 894.404C1249.79 871.479 1242.23 851.87 1233.12 829.614C1221.62 827.64 1210.15 826.44 1198.18 824.265Z"/><path fill="#3E204D" transform="scale(1.00005 1.00009)" d="M1198.18 824.265C1196.49 824.481 1196.11 824.477 1194.46 825.038C1210.53 849.656 1236.51 878.353 1258.4 898.356C1257.44 896.079 1258.51 896.04 1257.29 894.404C1257.15 894.401 1257.02 894.398 1256.88 894.395C1240.64 883.26 1206.42 837.768 1198.18 824.265Z"/><path fill="#FDEBAF" transform="scale(1.00005 1.00009)" d="M1168.44 666.406C1159.11 670.928 1156.58 707.565 1156.46 718.089C1169.04 727.015 1185.88 731.359 1200.57 735.517C1204.06 736.191 1207.57 736.967 1211.04 737.705C1210.21 720.249 1209.61 704.253 1211.1 686.82C1194.93 683.474 1181.92 675.298 1168.44 666.406Z"/><path fill="#FDEBAF" transform="scale(1.00005 1.00009)" d="M1161.21 744.914L1160.57 744.857L1160.03 745.47C1160.27 754.238 1177.81 789.134 1182.62 798.697C1196.79 802.157 1209.63 805.045 1224.01 807.763C1225.11 807.39 1224.68 807.724 1225.32 806.778C1220.08 789.53 1216.68 777.356 1213.23 759.708C1207.71 758.201 1199.93 757.285 1193.95 755.89C1182.32 753.18 1172.11 749.739 1161.21 744.914Z"/><path fill="#FDEBAF" transform="scale(1.00005 1.00009)" d="M1157.54 725.495C1156.57 727.474 1158.3 733.938 1158.8 736.275C1175.48 746.422 1191.85 751.127 1211.3 752.781L1211.84 752.213C1212.39 749.26 1212.09 746.252 1211.97 743.227C1190.92 739.939 1176.57 734.658 1157.54 725.495Z"/><path fill="#FDEBAF" transform="scale(1.00005 1.00009)" d="M1188.98 806.123L1187.89 805.924L1187.27 806.357C1187.58 809.289 1192.19 814.884 1194.16 817.503C1205.21 820.435 1217.65 822.318 1228.98 824.211L1230.55 823.913C1231.45 821.682 1228.52 815.669 1227.47 813.111C1213.37 811.72 1202.72 809.177 1188.98 806.123Z"/><path fill="#3E204D" transform="scale(1.00005 1.00009)" d="M1427.47 110.202C1422.72 116.379 1419.05 123.205 1414.81 129.726C1393.46 162.561 1365.49 191.092 1337.14 217.898C1327.56 226.95 1316.23 235.612 1307.22 244.963C1316.46 242.258 1312.86 251.126 1312.86 256.09C1312.85 267.699 1311.03 276.026 1307.75 287.093C1302.23 300.549 1298.56 310.319 1294.71 324.434C1294.19 326.259 1293.69 328.822 1292.5 330.177L1291.41 330.312C1292.7 331.645 1304.7 339.722 1307.15 341.506C1318.07 349.446 1328.78 357.171 1338.74 366.369C1346.87 352.943 1353.97 337.815 1361 323.753C1386.56 272.623 1407.27 218.669 1419.15 162.664C1422.83 145.317 1425.12 127.769 1427.47 110.202Z"/><path fill="#FDEBAF" transform="scale(1.00005 1.00009)" d="M1414.72 144.457C1406.46 153.152 1400.24 164.734 1392.57 174.1C1371.99 199.251 1348.9 221.997 1330.06 248.535C1320.92 261.408 1315.26 273.498 1307.75 287.093C1302.23 300.549 1298.56 310.319 1294.71 324.434L1295.21 324.646C1297.66 323.606 1302.95 318.563 1305.19 316.523C1321.81 301.397 1333.79 287.689 1345.84 268.827C1339.09 296.538 1335.09 317.065 1334.42 345.486C1372 283.344 1397.94 214.998 1414.72 144.457Z"/><path fill="#3E204D" transform="scale(1.00005 1.00009)" d="M1291.17 478.997C1290.74 478.946 1291.02 478.937 1290.38 479.285C1293.13 482.889 1300.6 486.44 1302.46 490.155C1311.46 508.095 1319.47 522.323 1341.42 525.018C1343.15 525.23 1350.7 526.29 1352.24 527.056C1376.57 539.11 1398.07 556.108 1420.45 571.328C1449.05 590.982 1477.6 610.357 1506.71 629.175L1507.57 629.281C1505.19 623.825 1395.46 547.071 1385.51 534.017C1379.69 527.898 1368.71 517.731 1364.84 510.503C1349.01 480.972 1317.52 488.398 1291.84 479.241L1291.17 478.997Z"/><path fill="#FDEBAF" transform="scale(1.00005 1.00009)" d="M1319.58 493.228C1317.38 493.105 1318.16 492.723 1316.86 493.777C1314.92 500.063 1321.41 508.843 1326.31 512.682C1335.45 519.852 1343.99 520.112 1355.09 518.903C1356.75 518.709 1358.05 518.725 1359.47 517.886C1359.79 514.437 1346.88 498.914 1343.07 497.271C1336.25 494.328 1326.97 493.843 1319.58 493.228Z"/><path fill="#3E204D" transform="scale(1.00005 1.00009)" d="M1353.29 437.065C1333.01 405.988 1299.73 381.116 1270.68 358.562C1264.49 353.759 1251.6 343.583 1245.14 340.526C1247.78 344.885 1251.58 348.545 1255.5 351.762C1290.59 380.535 1322.65 407.301 1351.83 442.395C1353.35 441.463 1353.11 438.826 1353.29 437.065Z"/><path fill="#3E204D" transform="scale(1.00005 1.00009)" d="M1411.38 532.493C1402.57 522.324 1390.46 508.429 1384.33 496.406C1373.58 475.343 1366.88 456.913 1353.29 437.065C1353.11 438.826 1353.35 441.463 1351.83 442.395C1356.2 448.976 1363.09 458.225 1366.29 465.199C1378.93 492.777 1386.27 512.946 1411.38 532.493Z"/><path fill="#FDEBAF" transform="scale(1.00005 1.00009)" d="M1118.66 67.3765C1099.89 67.4924 1079.86 70.7947 1061.37 73.8457C878.767 103.933 724.189 251.7 683.596 431.912C651.318 575.206 691.616 726.735 792.981 833.325L802.98 843.452C803.298 837.036 803.911 824.338 802.902 818.322C799.752 814.195 795.012 809.283 791.43 805.385C770.036 782.217 755.141 755.554 740.768 727.729C698.808 646.498 683.438 554.429 697.6 464.18C724.936 289.972 861.144 141.901 1031.85 98.7409C1059.94 91.6398 1089.81 87.726 1118.86 85.996C1118.94 79.6067 1119.05 73.7586 1118.66 67.3765Z"/><path fill="#FDEBAF" transform="scale(1.00005 1.00009)" d="M927.087 177.046C922.439 179.476 918.02 182.143 913.572 184.846C847.119 225.233 793.504 284.251 758.608 353.643C748.47 373.803 738.243 395.819 732.887 417.905C738.319 418.549 742.7 419.187 748.096 420.168C752.231 420.898 755.572 421.506 759.617 422.57C763.097 415.443 765.146 408.326 768.048 400.971C772.202 390.443 776.73 379.113 781.857 369.013C810.596 312.402 851.607 264.667 902.05 226.198C914.447 216.744 928.26 208.254 941.355 199.956C939.121 195.687 929.982 180.567 927.087 177.046ZM934.783 198.756C869.616 238.783 817.832 291.849 781.603 359.83C771.078 379.58 765.834 397.609 756.905 416.659L738.403 414.353C740.918 405.378 745.095 395.401 748.643 386.754C768.268 338.936 795.471 298.239 830.091 260.147C834.309 255.778 838.513 251.344 842.882 247.129C861.218 226.518 901.967 196.973 925.863 183.32C928.486 187.734 932.662 194.357 934.783 198.756Z"/><path fill="#FDEBAF" transform="scale(1.00005 1.00009)" d="M737.038 523.489C746.894 521.289 756.637 515.884 759.192 505.622C767.516 472.912 721.848 459.575 711.353 491.373C706.118 507.234 718.264 519.934 732.962 523.141C733.003 552.983 732.135 586.323 733.204 615.87C740.559 624.692 754.061 636.027 762.935 646.002C762.921 651.853 761.474 685.374 765.45 686.951L766.522 686.32C767.476 683.213 767.101 651.57 767.093 645.713C772.275 650.093 777.695 655.996 782.565 660.807C791.016 669.155 800.409 676.872 805.881 687.546C812.393 700.25 818.142 704.066 831.677 708.053C831.272 714.007 831.48 721.989 831.492 728.085L831.58 761.186L831.85 870.72C833.024 871.764 834.748 873.007 836.023 873.987L835.923 708.938C839.371 709.046 842.523 708.803 845.919 708.42C865.863 706.167 879.237 689.326 876.298 669.257C874.486 656.886 865.856 648.999 857.749 640.072C847.274 628.66 835.854 618.151 824.757 607.351C820.906 603.604 816.547 597.926 812.348 594.808C811.005 594.664 811.701 594.598 810.215 595.769C810.247 600.636 863.221 649.512 868.338 659.325C876.152 674.313 872.434 690.86 859.63 699.46L858.097 700.404C843.331 709.171 819.871 705.083 811.687 689.544C809.148 685.72 806.933 678.873 803.661 675.717C792.71 665.153 781.188 651.376 769.448 641.963C767.759 641.732 768.383 641.716 766.57 642.977C765.241 642.557 741.025 617.85 737.315 614.187C737.561 584.11 737.156 553.607 737.038 523.489ZM731.196 518.924C719.773 516.532 712.483 505.297 714.953 493.891C717.424 482.485 728.709 475.273 740.097 477.821C751.376 480.344 758.504 491.497 756.058 502.793C753.612 514.089 742.508 521.293 731.196 518.924Z"/><path fill="#FDEBAF" transform="scale(1.00005 1.00009)" d="M843.818 355.752C856.932 354.102 868.122 342.762 864.929 329.618C857.95 300.895 815.591 309.235 822.613 339.645C824.598 348.241 831.292 352.997 839.46 355.61C839.195 365.85 839.168 376.138 839.316 386.38C826.456 397.66 813.63 408.952 801.388 420.906C797.277 424.92 790.325 431.099 786.901 435.365C786.382 443.27 786.719 453.371 786.777 461.472L786.897 505.128L786.491 585.542C786.496 596.765 786.274 609.07 786.613 620.205C788.939 623.22 791.591 625.973 794.302 628.643C803.915 638.108 813.595 647.755 823.629 656.779C805.519 679.615 830.649 705.688 854.385 690.591L858.262 686.507C870.758 663.194 850.435 643.2 826.263 654.155C814.143 642.26 802.687 630.479 790.32 618.669C791.457 558.713 790.076 497.448 790.665 437.289C797.41 430.056 807.588 420.894 815.015 413.926C822.953 406.479 835.045 394.766 843.422 388.366C844.267 379.159 843.854 365.279 843.818 355.752ZM837.713 691.197C827.6 690.069 820.315 680.959 821.441 670.846C822.566 660.733 831.675 653.446 841.788 654.569C851.905 655.692 859.194 664.805 858.069 674.921C856.943 685.037 847.829 692.325 837.713 691.197ZM839.384 351.125C829.913 348.875 824.049 339.385 826.273 329.908C828.497 320.431 837.971 314.541 847.454 316.74C856.973 318.947 862.891 328.464 860.658 337.978C858.425 347.491 848.892 353.383 839.384 351.125Z"/><path fill="#FDEBAF" transform="scale(1.00005 1.00009)" d="M842.509 664.803C839.659 663.715 836.445 664.247 834.097 666.194C831.75 668.141 830.633 671.202 831.174 674.203C831.716 677.205 833.832 679.682 836.712 680.686C841.076 682.208 845.853 679.943 847.438 675.601C849.022 671.26 846.827 666.45 842.509 664.803ZM837.704 677.049C835.975 676.396 834.745 674.847 834.5 673.016C834.255 671.185 835.036 669.367 836.533 668.283C838.029 667.2 840 667.026 841.663 667.831C844.081 669 845.151 671.865 844.091 674.333C843.031 676.801 840.217 677.997 837.704 677.049Z"/><path fill="#FDEBAF" transform="scale(1.00005 1.00009)" d="M844.273 325.259C839.764 324.58 835.531 327.604 834.712 332.09C833.894 336.575 836.786 340.9 841.244 341.857C844.253 342.502 847.375 341.459 849.391 339.134C851.408 336.809 851.998 333.571 850.933 330.683C849.868 327.796 847.316 325.718 844.273 325.259ZM841.217 338.035C838.669 337.153 837.324 334.368 838.218 331.825C839.111 329.281 841.903 327.949 844.442 328.855C846.965 329.754 848.286 332.523 847.398 335.05C846.511 337.577 843.748 338.911 841.217 338.035Z"/><path fill="#FDEBAF" transform="scale(1.00005 1.00009)" d="M990.385 137.714C971.622 135.308 954.438 148.501 951.915 167.248C949.393 185.995 962.481 203.261 981.212 205.898C1000.11 208.559 1017.56 195.332 1020.1 176.421C1022.64 157.51 1009.31 140.141 990.385 137.714ZM982.206 201.187C965.948 198.943 954.589 183.941 956.84 167.684C959.09 151.427 974.097 140.075 990.353 142.332C1006.6 144.589 1017.94 159.585 1015.69 175.832C1013.44 192.079 998.454 203.429 982.206 201.187Z"/><path fill="#FDEBAF" transform="scale(1.00005 1.00009)" d="M1024.13 866.675C997.582 869.447 1001.94 908.345 1029.71 901.806C1044.06 915.213 1057.61 929.373 1072.48 942.232C1077.57 946.639 1074.66 949.122 1082.03 953.144L1082.31 953.215C1087.02 954.477 1091.53 954.66 1095.73 951.733C1101.8 947.508 1102.71 938.179 1098.01 932.585C1094.2 928.042 1089.93 927.485 1084.44 926.827C1072.9 912.926 1055.55 898.957 1042.68 885.885C1040.35 873.547 1037.32 868.378 1024.13 866.675ZM1039.17 887.95C1052.65 901.85 1067.21 913.393 1080.8 928.323C1076.62 931.63 1076.07 933.208 1073.77 937.887L1067.3 932.486C1055.7 921.548 1041.93 908.854 1031.18 897.263C1005.15 905.14 1003.77 868.548 1027.76 871.073C1036.7 873.992 1037.87 879.616 1039.17 887.95ZM1086.22 950.558C1081.35 949.967 1077.64 945.906 1077.49 941C1077.4 938.144 1078.55 935.388 1080.64 933.438C1082.73 931.488 1085.55 930.532 1088.4 930.814C1091.95 931.167 1095.05 933.404 1096.5 936.671C1097.94 939.938 1097.53 943.731 1095.4 946.605C1093.28 949.478 1089.77 950.987 1086.22 950.558Z"/><path fill="#FDEBAF" transform="scale(1.00005 1.00009)" d="M1026.36 879.809C1023.5 878.782 1020.35 880.249 1019.29 883.096C1018.24 885.943 1019.67 889.109 1022.51 890.194C1024.37 890.905 1026.47 890.562 1028.01 889.296C1029.54 888.03 1030.28 886.035 1029.94 884.073C1029.6 882.11 1028.23 880.482 1026.36 879.809ZM1023.03 886.76C1022.16 885.974 1022.05 884.636 1022.8 883.725C1023.55 882.813 1024.88 882.652 1025.82 883.359C1026.47 883.844 1026.8 884.645 1026.68 885.446C1026.56 886.246 1026.01 886.916 1025.25 887.191C1024.49 887.465 1023.64 887.3 1023.03 886.76Z"/><path fill="#FDEBAF" transform="scale(1.00005 1.00009)" d="M919.886 686.334C893.067 659.09 867.218 630.929 840.774 603.334C839.346 601.845 837.254 600.061 835.248 599.589L834.939 599.743C835.056 603.03 841.939 609.548 844.361 612.159L863.269 632.16C884.55 654.533 904.779 677.924 926.415 699.983C928.935 702.552 931.676 705.36 933.94 708.154C933.659 725.515 932.622 743.454 932.523 760.67C923.259 760.703 906.036 760.417 897.496 761.51L896.78 762.324C896.934 763.886 896.624 763.221 897.835 764.341C902.247 765.32 927.309 765.35 933.042 765.199C943.568 776.592 954.702 788.644 965.803 799.523C958.931 808.485 958.452 819.357 967.93 826.717C980.914 836.8 999.15 823.83 994.749 808.492C990.872 794.979 979.846 793.472 968.516 797.136C959.255 786.028 947.164 775.104 937.432 764.112C937.683 754.578 938.144 745.064 938.431 735.531C938.704 726.434 938.559 716.735 939.245 707.695C933.664 700.884 926.764 693.795 920.667 687.332L919.886 686.334ZM975.202 825.664C968.147 824.164 963.6 817.28 964.989 810.202C966.378 803.124 973.189 798.469 980.288 799.747C984.98 800.592 988.853 803.9 990.421 808.403C991.989 812.906 991.008 817.904 987.855 821.48C984.702 825.056 979.866 826.655 975.202 825.664Z"/><path fill="#FDEBAF" transform="scale(1.00005 1.00009)" d="M980.211 807.789C977.476 806.506 974.218 807.685 972.938 810.422C971.657 813.159 972.839 816.415 975.577 817.694C978.311 818.97 981.563 817.79 982.842 815.057C984.121 812.323 982.944 809.071 980.211 807.789Z"/><path fill="#FDEBAF" transform="scale(1.00005 1.00009)" d="M994.899 730.793C993.483 731.497 994.108 731.008 993.164 732.535C993.102 736.684 1007.72 749.227 1011.39 753.515L1011.79 753.981C1010.88 777.002 1011.47 803.497 1011.45 826.72C999.272 839.071 987.661 850.228 974.958 862.007C969.57 867.004 954.495 880.79 950.988 885.947C950.062 902.087 950.964 918.474 950.359 934.637C950.192 939.102 950.322 943.397 952.632 947.355L953.72 947.109L953.152 947.714C955.395 944.727 954.644 928.788 954.671 924.274L954.944 887.333C960.717 881.027 967.798 874.834 974.014 868.819C987.627 855.648 1001.71 842.773 1015.18 829.466L1015.13 784.476C1015.15 775.84 1015.46 765.82 1015.07 757.285C1027.52 767.378 1039.86 782.76 1052.08 793.514C1055.05 796.131 1056.45 797.883 1056.38 801.875C1056.64 819.996 1056.46 838.506 1056.48 856.658C1088.44 889.137 1121.36 921.249 1154.09 952.987C1155.54 954.401 1157.36 955.798 1159.1 954.339C1158.86 951.594 1069.11 863.673 1060.31 855.021C1061.04 837.952 1060.49 814.599 1060.32 797.222C1056.43 792.017 1045.29 781.348 1040.44 776.303C1025.77 761.043 1009.31 746.153 994.899 730.793Z"/><path fill="#FDEBAF" transform="scale(1.00005 1.00009)" d="M916.334 775.07C896.952 773.389 887.026 800.925 910.999 810.223C910.792 827.258 911.227 844.374 911.092 861.417C911.066 864.758 910.994 868.389 911.339 871.706C893.992 878.014 894.551 893.54 911.388 900.133C911.312 907.273 911.027 919.815 912.719 926.328C913.2 926.645 913.533 926.64 914.147 926.784L914.887 926.007C916.259 921.799 915.644 904.918 915.148 900.215C932.665 895.463 930.762 876.915 915.034 872.143C915 851.831 914.88 831.004 915.19 810.704C928.196 806.785 936.012 797.316 928.803 783.052C926.627 778.747 920.997 776.025 916.334 775.07ZM911.23 805.503C906.604 804.413 902.921 800.921 901.584 796.36C900.248 791.8 901.465 786.872 904.771 783.458C908.077 780.044 912.963 778.669 917.564 779.858C924.574 781.669 928.819 788.785 927.083 795.814C925.347 802.842 918.277 807.163 911.23 805.503ZM912.193 895.925C907.68 895.45 904.06 891.98 903.394 887.491C902.938 884.422 903.941 881.316 906.105 879.092C908.269 876.868 911.347 875.782 914.427 876.154C919.853 876.809 923.734 881.718 923.121 887.148C922.507 892.578 917.628 896.497 912.193 895.925Z"/><path fill="#FDEBAF" transform="scale(1.00005 1.00009)" d="M915.44 787.611C912.48 786.817 909.442 788.59 908.676 791.556C907.911 794.523 909.712 797.544 912.685 798.282C915.619 799.01 918.592 797.238 919.347 794.311C920.103 791.384 918.359 788.394 915.44 787.611Z"/><path fill="#FDEBAF" transform="scale(1.00005 1.00009)" d="M915.952 369.578C912.909 370.485 890.982 394.003 887.406 397.614L832.401 452.141L832.506 503.768C832.54 512.987 832.355 523.5 832.776 532.568C811.521 539.654 814.905 564.889 835.171 568.266C855.033 567.485 859.965 543.988 843.179 534.602C841.488 533.656 838.431 532.917 836.478 532.38L836.479 486.878C836.485 476.116 836.314 465.066 837.025 454.35C862.455 427.315 890.666 400.058 916.509 373.269C917.281 372.469 916.292 370.53 915.952 369.578ZM832.781 564.081C825.223 562.477 820.398 555.049 822.005 547.492C823.611 539.935 831.041 535.112 838.597 536.721C846.15 538.329 850.97 545.755 849.365 553.308C847.759 560.862 840.335 565.684 832.781 564.081Z"/><path fill="#FDEBAF" transform="scale(1.00005 1.00009)" d="M837.488 543.783C835.079 543.082 832.48 543.736 830.688 545.491C828.895 547.247 828.189 549.833 828.84 552.256C829.491 554.679 831.398 556.562 833.829 557.184C837.503 558.123 841.252 555.942 842.251 552.283C843.249 548.625 841.13 544.841 837.488 543.783ZM833.761 553.915C831.904 553.047 831.061 550.87 831.849 548.977C832.637 547.085 834.776 546.149 836.7 546.855C838.02 547.34 838.968 548.509 839.169 549.901C839.37 551.293 838.792 552.683 837.662 553.521C836.533 554.359 835.035 554.51 833.761 553.915Z"/><path fill="#FDEBAF" transform="scale(1.00005 1.00009)" d="M872.226 701.613C870.171 702.206 870.383 701.808 869.177 703.158C868.596 709.323 868.915 720.528 868.931 727.034C868.948 733.494 868.634 744.769 869.235 750.855C848.856 757.936 850.338 778.263 869.475 784.795L869.45 857.804C869.444 863.723 868.913 898.455 870.226 900.709C871.787 901.871 871.98 902.445 873.595 902.559C873.937 901.88 874.011 901.771 874.009 900.984L873.439 785.07C887.808 780.374 890.923 764.482 879.39 754.313C877.871 752.975 874.981 751.947 873.032 751.177C873.064 738.095 873.704 713.813 872.226 701.613ZM868.84 781.33C852.722 774.773 855.875 754.75 871.611 755.049C886.497 759.528 885.289 780.475 868.84 781.33Z"/><path fill="#FDEBAF" transform="scale(1.00005 1.00009)" d="M871.37 762.732C868.615 762.063 865.834 763.73 865.125 766.474C864.416 769.219 866.042 772.024 868.776 772.772C870.58 773.266 872.511 772.75 873.828 771.422C875.145 770.094 875.644 768.159 875.135 766.36C874.626 764.56 873.187 763.174 871.37 762.732ZM869.18 771.165C868.143 769.532 867.557 768.94 867.45 767.003C868.118 765.463 868.298 765.116 870.121 764.219C871.227 765.749 871.929 766.395 872.11 768.27C871.437 769.943 871.124 770.215 869.18 771.165Z"/><path fill="#FDEBAF" transform="scale(1.00005 1.00009)" d="M1553.25 588.929C1561.9 547.633 1560.19 494.566 1552.36 453.556C1540.02 388.897 1512.59 327.391 1471.54 275.877C1461.18 262.883 1447.63 246.261 1433.89 236.87C1438.17 243.055 1450.18 255.577 1455.69 262.057C1515.99 332.979 1552.73 423.134 1555.36 516.47C1556.07 541.407 1553.33 562.074 1551.31 586.776C1550.95 589.77 1550.15 594.17 1551.06 596.914C1552.49 596.116 1553 590.679 1553.25 588.929Z"/><path fill="#FDEBAF" transform="scale(1.00005 1.00009)" d="M798.867 731.842C789.337 729.499 779.725 735.375 777.465 744.924C775.205 754.474 781.163 764.035 790.732 766.212C800.184 768.363 809.604 762.493 811.837 753.06C814.069 743.626 808.281 734.156 798.867 731.842ZM791.732 762.909C784.103 761.261 779.256 753.739 780.905 746.11C782.555 738.481 790.077 733.634 797.706 735.285C805.333 736.935 810.179 744.456 808.53 752.083C806.88 759.711 799.36 764.558 791.732 762.909Z"/><path fill="#FDEBAF" transform="scale(1.00005 1.00009)" d="M797.768 742.233C795.304 741.295 792.526 741.754 790.495 743.435C788.463 745.115 787.492 747.758 787.952 750.354C788.412 752.95 790.232 755.098 792.717 755.979C796.497 757.318 800.652 755.367 802.035 751.603C803.419 747.838 801.516 743.661 797.768 742.233ZM794.12 752.883C792.714 752.555 791.595 751.491 791.197 750.103C790.798 748.716 791.181 747.221 792.198 746.196C793.216 745.171 794.708 744.777 796.099 745.165C798.186 745.748 799.425 747.893 798.887 749.992C798.348 752.092 796.231 753.376 794.12 752.883Z"/><path fill="#FDEBAF" transform="scale(1.00005 1.00009)" d="M1502.99 741.238C1500.22 742.565 1491.21 758.107 1488.74 761.794C1445.74 825.973 1386.52 879.12 1316.41 912.051C1315.03 912.698 1314.8 913.841 1314.47 915.113C1316.79 915.531 1321.96 913.084 1324.2 911.97C1392.22 878.147 1451.84 825.513 1491.92 760.815C1495.73 754.66 1500.58 748.024 1502.99 741.238Z"/><path fill="#FDEBAF" transform="scale(1.00005 1.00009)" d="M1108.74 852.223L1106.94 852.461L1106.38 853.231C1108.65 859.899 1196.92 943.567 1208.43 955.688C1209.94 955.154 1210.15 954.79 1210.62 953.522C1208.99 949.251 1118.79 860.607 1108.74 852.223Z"/><path fill="#FDEBAF" transform="scale(1.00005 1.00009)" d="M1142.71 112.713C1141.05 112.407 1131.5 112.387 1129.52 112.387C1106.07 112.386 1046.62 117.182 1027.81 128.299C1036.02 127.929 1046.21 124.301 1054.56 122.775C1067.23 120.462 1081.3 118.013 1094.08 116.974C1097.15 116.445 1100.73 116.248 1103.86 116.058C1132.35 114.321 1161.21 115.702 1189.27 121.063C1193.91 121.95 1206.83 125.573 1210.44 124.129L1210.57 123.323C1204.24 117.89 1153.97 113.498 1142.71 112.713Z"/><path fill="#FDEBAF" transform="scale(1.00005 1.00009)" d="M1098.79 831.778C1092.21 830.393 1085.74 834.547 1084.26 841.105C1082.79 847.662 1086.85 854.191 1093.38 855.763C1097.69 856.799 1102.23 855.434 1105.25 852.19C1108.28 848.946 1109.32 844.325 1107.98 840.098C1106.64 835.871 1103.13 832.691 1098.79 831.778ZM1093.72 852.045C1089.23 850.74 1086.65 846.058 1087.93 841.567C1089.21 837.077 1093.87 834.464 1098.37 835.72C1102.91 836.985 1105.54 841.698 1104.25 846.224C1102.96 850.75 1098.23 853.361 1093.72 852.045Z"/><path fill="#FDEBAF" transform="scale(1.00005 1.00009)" d="M995.788 869.808C992.329 871.774 977.271 887.303 974.194 890.712C973.421 902.421 974.337 921.391 974.49 933.884C981 939.629 988.267 946.749 994.874 952.097C995.952 951.902 995.582 951.961 996.568 951.233L996.68 950.128C994.832 946.124 982.251 935.553 978.41 932.212L978.431 891.968C982.942 887.174 994.289 877.501 997.511 872.735C997.447 871.309 996.923 871.199 995.788 869.808Z"/><path fill="#FDEBAF" transform="scale(1.00005 1.00009)" d="M833.715 576.322C832.522 577.119 832.623 577.188 831.957 578.498C832.667 581.48 862.672 611.005 867.84 616.52C874.477 623.604 885.946 635.021 893.304 642.159C894.8 641.344 894.319 641.923 894.948 640.51C893.777 638.126 875.22 619.296 872.246 616.232L833.715 576.322Z"/><path fill="#FDEBAF" transform="scale(1.00005 1.00009)" d="M749.09 685.811C747.341 686.623 748.087 686.052 746.886 687.73C747.008 688.887 746.843 689.109 747.746 690.001C761.336 703.439 774.185 718.123 788.081 731.192C789.789 731.04 789.091 731.356 790.33 730.425C790.332 730.277 790.354 730.128 790.337 729.98C789.757 724.829 755.034 691.714 749.09 685.811Z"/><path fill="#FDEBAF" transform="scale(1.00005 1.00009)" d="M1119.6 160.912C1104.67 161.849 1067.42 164.015 1052.53 171.064C1051.34 171.625 1051.54 173.048 1051.51 174.206C1066.48 170.437 1080.83 167.848 1096.16 165.912C1102.68 165.087 1112.54 165.476 1118.5 164.097C1119.77 162.79 1119.37 163.19 1119.6 160.912Z"/><path fill="#FDEBAF" transform="scale(1.00005 1.00009)" d="M-17.4355 1277.28Q-2.20703 1268.02 8.71777 1257.86Q19.6426 1247.71 26.7051 1235.46Q33.7676 1223.21 37.0781 1208.09Q40.3887 1192.98 40.3887 1173.78L40.3887 875.164L110.352 875.164L110.352 1161.19Q110.352 1184.15 108.365 1203.02Q106.379 1221.89 101.854 1237.67Q97.3301 1253.45 89.7158 1266.69Q82.1016 1279.93 70.9561 1291.85Q59.8105 1303.77 44.6924 1314.8Q29.5742 1325.84 9.71094 1337.1L-17.4355 1277.28ZM317.371 875.164L391.527 875.164L558.379 1220.12L484.885 1220.12L457.297 1162.08L255.795 1162.08L229.09 1220.12L155.375 1220.12L317.371 875.164ZM429.709 1104.47L355.111 947.775L282.5 1104.47L429.709 1104.47ZM591.043 1045.55Q591.043 1008.69 604.947 976.798Q618.852 944.906 645.226 921.401Q671.6 897.896 709.671 884.434Q747.742 870.971 795.855 870.971Q838.01 870.971 873.212 879.468Q908.414 887.965 938.65 905.4L906.428 958.369Q897.379 952.41 885.571 947.775Q873.764 943.141 860.411 939.94Q847.059 936.74 832.823 934.975Q818.588 933.209 804.684 933.209Q771.137 933.209 744.873 941.485Q718.609 949.762 700.622 964.659Q682.635 979.557 673.255 1000.19Q663.875 1020.83 663.875 1045.55Q663.875 1071.15 673.586 1092.56Q683.297 1113.96 701.726 1129.52Q720.154 1145.08 746.749 1153.8Q773.344 1162.52 806.891 1162.52Q822.119 1162.52 837.127 1160.31Q852.135 1158.1 866.149 1154.24Q880.164 1150.38 893.186 1144.97Q906.207 1139.57 917.463 1133.17L949.686 1186.14Q921.436 1204.23 884.357 1214.49Q847.279 1224.76 805.566 1224.76Q752.377 1224.76 712.209 1210.96Q672.041 1197.17 645.115 1173Q618.189 1148.84 604.616 1116.06Q591.043 1083.29 591.043 1045.55ZM1026.71 875.164L1096.67 875.164L1096.67 1158.77L1297.29 1158.77L1297.29 1220.12L1026.71 1220.12L1026.71 875.164ZM1391.31 924.16Q1381.6 924.16 1373.77 921.401Q1365.93 918.643 1360.41 913.897Q1354.9 909.152 1351.92 902.862Q1348.94 896.572 1348.94 889.51Q1348.94 882.227 1351.92 875.936Q1354.9 869.646 1360.41 865.012Q1365.93 860.377 1373.77 857.618Q1381.6 854.859 1391.31 854.859Q1401.24 854.859 1409.08 857.618Q1416.91 860.377 1422.43 865.012Q1427.95 869.646 1430.93 875.936Q1433.91 882.227 1433.91 889.51Q1433.91 896.572 1430.93 902.862Q1427.95 909.152 1422.43 913.897Q1416.91 918.643 1409.08 921.401Q1401.24 924.16 1391.31 924.16ZM1358.65 959.693L1423.98 959.693L1423.98 1220.12L1358.65 1220.12L1358.65 959.693ZM1505.86 853.977L1571.19 853.977L1571.19 984.191Q1579.79 978.232 1591.49 972.935Q1603.19 967.639 1616.65 963.666Q1630.11 959.693 1644.46 957.376Q1658.8 955.059 1673.15 955.059Q1706.26 955.059 1733.95 964.769Q1761.65 974.48 1781.52 992.137Q1801.38 1009.79 1812.52 1034.4Q1823.67 1059.01 1823.67 1088.8Q1823.67 1119.92 1811.97 1144.97Q1800.28 1170.02 1779.64 1187.79Q1759 1205.56 1730.64 1215.16Q1702.28 1224.76 1669.18 1224.76Q1655.05 1224.76 1641.26 1222.99Q1627.46 1221.23 1614.77 1218.14Q1602.08 1215.05 1590.94 1210.74Q1579.79 1206.44 1571.19 1201.36L1571.19 1220.12L1505.86 1220.12L1505.86 853.977ZM1571.19 1138.24Q1581.12 1146.19 1592.15 1151.7Q1603.19 1157.22 1614.66 1160.75Q1626.14 1164.28 1637.84 1165.94Q1649.54 1167.6 1660.57 1167.6Q1683.08 1167.6 1700.63 1161.53Q1718.17 1155.46 1730.2 1144.86Q1742.23 1134.27 1748.63 1119.92Q1755.03 1105.58 1755.03 1088.8Q1755.03 1073.14 1748.74 1059.23Q1742.45 1045.33 1730.64 1034.84Q1718.84 1024.36 1702.17 1018.29Q1685.51 1012.22 1664.76 1012.22Q1651.52 1012.22 1638.28 1014.76Q1625.04 1017.3 1612.79 1021.93Q1600.54 1026.57 1589.83 1033.19Q1579.13 1039.81 1571.19 1047.97L1571.19 1138.24ZM1868.47 1090.57Q1868.47 1061.88 1878.96 1037.05Q1889.44 1012.22 1909.63 994.013Q1929.83 975.805 1959.07 965.432Q1988.31 955.059 2025.83 955.059Q2042.17 955.059 2058.72 957.045Q2075.27 959.031 2090.61 962.673Q2105.95 966.314 2119.41 971.28Q2132.88 976.246 2142.81 982.205L2112.57 1031.42Q2091.16 1021.49 2072.07 1016.85Q2052.98 1012.22 2033.34 1012.22Q2010.83 1012.22 1992.95 1018.07Q1975.07 1023.92 1962.6 1034.4Q1950.13 1044.89 1943.62 1059.12Q1937.11 1073.35 1937.11 1090.13Q1937.11 1106.9 1944.06 1121.14Q1951.02 1135.37 1963.71 1145.64Q1976.4 1155.9 1994.38 1161.75Q2012.37 1167.6 2034.44 1167.6Q2058.72 1167.6 2080.24 1160.75Q2101.76 1153.91 2120.29 1142.44L2150.53 1191.65Q2138.83 1198.71 2125.15 1204.78Q2111.47 1210.85 2095.91 1215.27Q2080.35 1219.68 2063.24 1222.22Q2046.14 1224.76 2027.82 1224.76Q1990.52 1224.76 1960.95 1214.6Q1931.37 1204.45 1910.85 1186.47Q1890.32 1168.48 1879.4 1143.98Q1868.47 1119.48 1868.47 1090.57Z"/><path fill="#FDEBAF" transform="scale(1.00005 1.00009)" d="M172.547 1323.81L158.771 1323.81L158.771 1313.08L172.547 1313.08L172.547 1295.34L186.856 1295.34L186.856 1313.08L200.633 1313.08L200.633 1323.81L186.856 1323.81L186.856 1370.12L172.547 1370.12L172.547 1323.81ZM213.346 1289.97L227.655 1289.97L227.655 1317.43Q232.15 1314.96 237.685 1313.51Q243.22 1312.06 249.311 1312.06Q256.369 1312.06 262 1314.14Q267.632 1316.22 271.547 1320.11Q275.463 1324 277.566 1329.56Q279.668 1335.12 279.668 1342.08L279.668 1370.12L265.408 1370.12L265.408 1342.66Q265.408 1338.6 264.103 1335.24Q262.798 1331.88 260.284 1329.47Q257.771 1327.05 254.169 1325.72Q250.568 1324.39 246.024 1324.39Q240.561 1324.39 235.873 1326.13Q231.184 1327.87 227.655 1330.53L227.655 1370.12L213.346 1370.12L213.346 1289.97ZM292.962 1341.41Q292.962 1335.61 295.331 1330.31Q297.699 1325.02 302.146 1320.96Q306.594 1316.9 313.047 1314.48Q319.5 1312.06 327.718 1312.06Q335.888 1312.06 342.438 1314.51Q348.988 1316.95 353.556 1321.2Q358.124 1325.45 360.565 1331.21Q363.006 1336.96 363.006 1343.53Q363.006 1344.35 362.982 1345.3Q362.958 1346.24 362.861 1347.01L308.914 1347.01Q309.833 1349.58 311.887 1351.7Q313.941 1353.83 317.035 1355.38Q320.129 1356.92 324.189 1357.77Q328.25 1358.62 333.181 1358.62Q338.111 1358.62 342.994 1357.58Q347.876 1356.54 352.323 1354.94L357.157 1365.87Q354.354 1367.17 351.477 1368.16Q348.601 1369.15 345.483 1369.81Q342.365 1370.46 338.957 1370.8Q335.549 1371.14 331.779 1371.14Q322.159 1371.14 314.908 1368.81Q307.657 1366.49 302.775 1362.48Q297.893 1358.47 295.427 1353.06Q292.962 1347.64 292.962 1341.41ZM347.828 1335.85Q347.054 1333.48 345.435 1331.42Q343.815 1329.37 341.398 1327.85Q338.981 1326.32 335.791 1325.45Q332.601 1324.58 328.782 1324.58Q324.721 1324.58 321.386 1325.5Q318.05 1326.42 315.537 1327.97Q313.023 1329.51 311.355 1331.54Q309.688 1333.58 308.914 1335.85L347.828 1335.85ZM408.542 1352.14Q408.542 1348.03 410.331 1344.64Q412.12 1341.26 415.697 1338.82Q419.274 1336.38 424.615 1335.05Q429.957 1333.72 437.063 1333.72Q442.332 1333.72 448.157 1334.49Q453.982 1335.27 460.169 1336.86Q459.928 1334.16 458.526 1331.86Q457.124 1329.56 454.635 1327.9Q452.145 1326.23 448.64 1325.31Q445.136 1324.39 440.688 1324.39Q438.271 1324.39 435.371 1324.68Q432.471 1324.97 429.377 1325.55Q426.283 1326.13 423.262 1327Q420.241 1327.87 417.63 1329.08L413.28 1317.33Q416.519 1316.17 420.217 1315.21Q423.915 1314.24 427.782 1313.54Q431.649 1312.84 435.516 1312.45Q439.383 1312.06 443.009 1312.06Q459.009 1312.06 466.792 1320.23Q474.575 1328.4 474.575 1345.27L474.575 1370.12L460.266 1370.12L460.266 1364.75Q458.042 1366.06 455.408 1367.22Q452.773 1368.38 449.68 1369.25Q446.586 1370.12 443.033 1370.63Q439.48 1371.14 435.516 1371.14Q428.845 1371.14 423.794 1369.68Q418.742 1368.23 415.358 1365.67Q411.975 1363.11 410.259 1359.65Q408.542 1356.2 408.542 1352.14ZM423.625 1351.65Q423.625 1353.06 424.35 1354.34Q425.075 1355.62 426.67 1356.61Q428.265 1357.6 430.755 1358.2Q433.244 1358.81 436.773 1358.81Q440.543 1358.81 444.072 1358.13Q447.601 1357.45 450.646 1356.34Q453.692 1355.23 456.157 1353.78Q458.623 1352.33 460.266 1350.78L460.266 1348.27Q456.979 1347.35 453.764 1346.72Q450.55 1346.1 447.625 1345.73Q444.701 1345.37 442.115 1345.22Q439.528 1345.08 437.595 1345.08Q433.583 1345.08 430.924 1345.61Q428.265 1346.14 426.622 1347.04Q424.978 1347.93 424.301 1349.14Q423.625 1350.35 423.625 1351.65ZM493.476 1313.08L507.784 1313.08L507.784 1317.91Q513.488 1314.67 518.685 1313.37Q523.881 1312.06 528.86 1312.06Q535.386 1312.06 540.945 1313.97Q546.504 1315.88 550.565 1319.65Q554.625 1323.42 556.922 1329.06Q559.218 1334.69 559.218 1342.08L559.218 1370.12L544.958 1370.12L544.958 1344.4Q544.958 1339.71 543.628 1336.02Q542.299 1332.32 539.809 1329.78Q537.32 1327.24 533.767 1325.91Q530.214 1324.58 525.815 1324.58Q523.495 1324.58 521.053 1325.07Q518.612 1325.55 516.268 1326.44Q513.923 1327.34 511.748 1328.67Q509.573 1330 507.784 1331.69L507.784 1370.12L493.476 1370.12L493.476 1313.08ZM585.37 1323.81L571.593 1323.81L571.593 1313.08L585.37 1313.08L585.37 1295.34L599.678 1295.34L599.678 1313.08L613.455 1313.08L613.455 1323.81L599.678 1323.81L599.678 1370.12L585.37 1370.12L585.37 1323.81ZM633.709 1305.3Q631.583 1305.3 629.866 1304.69Q628.15 1304.09 626.942 1303.05Q625.733 1302.01 625.081 1300.63Q624.428 1299.25 624.428 1297.71Q624.428 1296.11 625.081 1294.73Q625.733 1293.36 626.942 1292.34Q628.15 1291.33 629.866 1290.72Q631.583 1290.12 633.709 1290.12Q635.885 1290.12 637.601 1290.72Q639.317 1291.33 640.525 1292.34Q641.734 1293.36 642.386 1294.73Q643.039 1296.11 643.039 1297.71Q643.039 1299.25 642.386 1300.63Q641.734 1302.01 640.525 1303.05Q639.317 1304.09 637.601 1304.69Q635.885 1305.3 633.709 1305.3ZM626.555 1313.08L640.864 1313.08L640.864 1370.12L626.555 1370.12L626.555 1313.08ZM667.789 1323.81L654.012 1323.81L654.012 1313.08L667.789 1313.08L667.789 1295.34L682.098 1295.34L682.098 1313.08L695.875 1313.08L695.875 1323.81L682.098 1323.81L682.098 1370.12L667.789 1370.12L667.789 1323.81ZM708.588 1289.97L722.896 1289.97L722.896 1317.43Q727.392 1314.96 732.927 1313.51Q738.462 1312.06 744.553 1312.06Q751.61 1312.06 757.242 1314.14Q762.874 1316.22 766.789 1320.11Q770.705 1324 772.807 1329.56Q774.91 1335.12 774.91 1342.08L774.91 1370.12L760.65 1370.12L760.65 1342.66Q760.65 1338.6 759.345 1335.24Q758.04 1331.88 755.526 1329.47Q753.012 1327.05 749.411 1325.72Q745.81 1324.39 741.266 1324.39Q735.803 1324.39 731.114 1326.13Q726.425 1327.87 722.896 1330.53L722.896 1370.12L708.588 1370.12L708.588 1289.97ZM788.204 1341.41Q788.204 1335.61 790.572 1330.31Q792.941 1325.02 797.388 1320.96Q801.835 1316.9 808.289 1314.48Q814.742 1312.06 822.96 1312.06Q831.129 1312.06 837.679 1314.51Q844.229 1316.95 848.798 1321.2Q853.366 1325.45 855.807 1331.21Q858.248 1336.96 858.248 1343.53Q858.248 1344.35 858.224 1345.3Q858.2 1346.24 858.103 1347.01L804.156 1347.01Q805.074 1349.58 807.129 1351.7Q809.183 1353.83 812.277 1355.38Q815.371 1356.92 819.431 1357.77Q823.492 1358.62 828.422 1358.62Q833.353 1358.62 838.235 1357.58Q843.118 1356.54 847.565 1354.94L852.399 1365.87Q849.595 1367.17 846.719 1368.16Q843.843 1369.15 840.725 1369.81Q837.607 1370.46 834.199 1370.8Q830.791 1371.14 827.021 1371.14Q817.401 1371.14 810.15 1368.81Q802.899 1366.49 798.017 1362.48Q793.134 1358.47 790.669 1353.06Q788.204 1347.64 788.204 1341.41ZM843.069 1335.85Q842.296 1333.48 840.677 1331.42Q839.057 1329.37 836.64 1327.85Q834.223 1326.32 831.033 1325.45Q827.842 1324.58 824.023 1324.58Q819.963 1324.58 816.627 1325.5Q813.292 1326.42 810.778 1327.97Q808.265 1329.51 806.597 1331.54Q804.929 1333.58 804.156 1335.85L843.069 1335.85ZM875.892 1352.62Q881.693 1356.1 888.654 1357.74Q895.615 1359.39 902.914 1359.39Q907.845 1359.39 911.132 1358.71Q914.419 1358.04 916.401 1356.97Q918.383 1355.91 919.205 1354.55Q920.026 1353.2 920.026 1351.8Q920.026 1349.77 918.262 1348.32Q916.498 1346.87 912.437 1346.87Q910.552 1346.87 908.376 1347.11Q906.201 1347.35 903.808 1347.62Q901.416 1347.88 898.829 1348.13Q896.243 1348.37 893.584 1348.37Q887.784 1348.37 883.699 1347.11Q879.614 1345.85 877.052 1343.68Q874.49 1341.5 873.33 1338.53Q872.17 1335.56 872.17 1332.12Q872.17 1327.77 874.2 1324.1Q876.23 1320.43 880.001 1317.74Q883.771 1315.06 889.113 1313.56Q894.455 1312.06 901.029 1312.06Q904.461 1312.06 908.207 1312.47Q911.954 1312.89 915.579 1313.56Q919.205 1314.24 922.54 1315.13Q925.875 1316.03 928.438 1317.04L923.942 1328.16Q918.479 1326.13 913.041 1324.95Q907.603 1323.76 901.851 1323.76Q897.838 1323.76 895.059 1324.37Q892.279 1324.97 890.539 1325.96Q888.799 1326.95 888.001 1328.23Q887.204 1329.51 887.204 1330.92Q887.204 1331.93 887.615 1332.75Q888.025 1333.58 888.968 1334.18Q889.911 1334.78 891.433 1335.1Q892.956 1335.41 895.18 1335.41Q897.21 1335.41 899.482 1335.17Q901.754 1334.93 904.219 1334.66Q906.685 1334.4 909.319 1334.16Q911.954 1333.91 914.709 1333.91Q919.833 1333.91 923.676 1335.12Q927.519 1336.33 930.033 1338.51Q932.546 1340.68 933.803 1343.63Q935.06 1346.58 935.06 1350.06Q935.06 1354.55 932.981 1358.42Q930.903 1362.29 926.794 1365.12Q922.685 1367.94 916.57 1369.54Q910.455 1371.14 902.431 1371.14Q897.5 1371.14 892.908 1370.53Q888.315 1369.93 884.158 1368.89Q880.001 1367.85 876.351 1366.45Q872.702 1365.04 869.705 1363.45L875.892 1352.62ZM955.459 1305.3Q953.333 1305.3 951.616 1304.69Q949.9 1304.09 948.692 1303.05Q947.483 1302.01 946.831 1300.63Q946.178 1299.25 946.178 1297.71Q946.178 1296.11 946.831 1294.73Q947.483 1293.36 948.692 1292.34Q949.9 1291.33 951.616 1290.72Q953.333 1290.12 955.459 1290.12Q957.635 1290.12 959.351 1290.72Q961.067 1291.33 962.275 1292.34Q963.484 1293.36 964.136 1294.73Q964.789 1296.11 964.789 1297.71Q964.789 1299.25 964.136 1300.63Q963.484 1302.01 962.275 1303.05Q961.067 1304.09 959.351 1304.69Q957.635 1305.3 955.459 1305.3ZM948.305 1313.08L962.614 1313.08L962.614 1370.12L948.305 1370.12L948.305 1313.08ZM983.207 1352.62Q989.007 1356.1 995.968 1357.74Q1002.93 1359.39 1010.23 1359.39Q1015.16 1359.39 1018.45 1358.71Q1021.73 1358.04 1023.72 1356.97Q1025.7 1355.91 1026.52 1354.55Q1027.34 1353.2 1027.34 1351.8Q1027.34 1349.77 1025.58 1348.32Q1023.81 1346.87 1019.75 1346.87Q1017.87 1346.87 1015.69 1347.11Q1013.52 1347.35 1011.12 1347.62Q1008.73 1347.88 1006.14 1348.13Q1003.56 1348.37 1000.9 1348.37Q995.098 1348.37 991.013 1347.11Q986.929 1345.85 984.367 1343.68Q981.805 1341.5 980.645 1338.53Q979.484 1335.56 979.484 1332.12Q979.484 1327.77 981.515 1324.1Q983.545 1320.43 987.315 1317.74Q991.086 1315.06 996.427 1313.56Q1001.77 1312.06 1008.34 1312.06Q1011.78 1312.06 1015.52 1312.47Q1019.27 1312.89 1022.89 1313.56Q1026.52 1314.24 1029.85 1315.13Q1033.19 1316.03 1035.75 1317.04L1031.26 1328.16Q1025.79 1326.13 1020.36 1324.95Q1014.92 1323.76 1009.16 1323.76Q1005.15 1323.76 1002.37 1324.37Q999.594 1324.97 997.854 1325.96Q996.113 1326.95 995.316 1328.23Q994.518 1329.51 994.518 1330.92Q994.518 1331.93 994.929 1332.75Q995.34 1333.58 996.282 1334.18Q997.225 1334.78 998.748 1335.1Q1000.27 1335.41 1002.49 1335.41Q1004.52 1335.41 1006.8 1335.17Q1009.07 1334.93 1011.53 1334.66Q1014 1334.4 1016.63 1334.16Q1019.27 1333.91 1022.02 1333.91Q1027.15 1333.91 1030.99 1335.12Q1034.83 1336.33 1037.35 1338.51Q1039.86 1340.68 1041.12 1343.63Q1042.38 1346.58 1042.38 1350.06Q1042.38 1354.55 1040.3 1358.42Q1038.22 1362.29 1034.11 1365.12Q1030 1367.94 1023.89 1369.54Q1017.77 1371.14 1009.74 1371.14Q1004.81 1371.14 1000.22 1370.53Q995.63 1369.93 991.473 1368.89Q987.315 1367.85 983.666 1366.45Q980.016 1365.04 977.019 1363.45L983.207 1352.62ZM1084.67 1341.6Q1084.67 1335.46 1087.16 1330.09Q1089.65 1324.73 1094.27 1320.72Q1098.88 1316.7 1105.43 1314.38Q1111.98 1312.06 1120.15 1312.06Q1128.32 1312.06 1134.87 1314.38Q1141.42 1316.7 1146.04 1320.72Q1150.66 1324.73 1153.15 1330.09Q1155.63 1335.46 1155.63 1341.6Q1155.63 1347.74 1153.15 1353.1Q1150.66 1358.47 1146.04 1362.48Q1141.42 1366.49 1134.87 1368.81Q1128.32 1371.14 1120.15 1371.14Q1111.98 1371.14 1105.43 1368.81Q1098.88 1366.49 1094.27 1362.48Q1089.65 1358.47 1087.16 1353.1Q1084.67 1347.74 1084.67 1341.6ZM1099.71 1341.6Q1099.71 1345.03 1101.08 1348.1Q1102.46 1351.17 1105.09 1353.52Q1107.73 1355.86 1111.53 1357.24Q1115.32 1358.62 1120.15 1358.62Q1124.99 1358.62 1128.78 1357.24Q1132.58 1355.86 1135.21 1353.52Q1137.85 1351.17 1139.22 1348.1Q1140.6 1345.03 1140.6 1341.6Q1140.6 1338.17 1139.22 1335.07Q1137.85 1331.98 1135.21 1329.64Q1132.58 1327.29 1128.78 1325.91Q1124.99 1324.54 1120.15 1324.54Q1115.32 1324.54 1111.53 1325.91Q1107.73 1327.29 1105.09 1329.64Q1102.46 1331.98 1101.08 1335.07Q1099.71 1338.17 1099.71 1341.6ZM1176.32 1323.81L1166.56 1323.81L1166.56 1313.08L1176.32 1313.08Q1176.32 1307.28 1177.97 1302.76Q1179.61 1298.24 1182.73 1295.12Q1185.85 1292 1190.32 1290.36Q1194.79 1288.72 1200.4 1288.72Q1204.31 1288.72 1208.08 1289.46Q1211.85 1290.21 1214.75 1291.62L1209.68 1303.65Q1208.52 1302.98 1206.42 1302.4Q1204.31 1301.82 1201.8 1301.82Q1196.87 1301.82 1193.85 1304.6Q1190.83 1307.37 1190.63 1313.08L1208.66 1313.08L1208.66 1323.81L1190.63 1323.81L1190.63 1370.12L1176.32 1370.12L1176.32 1323.81ZM1259.37 1377.27Q1261.6 1378.72 1264.21 1379.84Q1266.82 1380.95 1269.64 1381.67Q1272.47 1382.4 1275.42 1382.76Q1278.37 1383.12 1281.27 1383.12Q1291.13 1383.12 1296.47 1378.89Q1301.81 1374.66 1301.81 1366.2L1301.81 1364.27Q1299.93 1365.58 1297.58 1366.66Q1295.24 1367.75 1292.56 1368.52Q1289.87 1369.3 1286.9 1369.71Q1283.93 1370.12 1280.88 1370.12Q1274.36 1370.12 1269.21 1368.21Q1264.06 1366.3 1260.51 1362.6Q1256.96 1358.91 1255.07 1353.49Q1253.18 1348.08 1253.18 1341.12L1253.18 1313.08L1267.44 1313.08L1267.44 1337.15Q1267.44 1347.5 1271.38 1352.4Q1275.32 1357.31 1283.83 1357.31Q1289.83 1357.31 1294.44 1355.21Q1299.06 1353.1 1301.81 1349.82L1301.81 1313.08L1316.12 1313.08L1316.12 1363.59Q1316.12 1371.76 1313.8 1377.78Q1311.48 1383.8 1307.06 1387.76Q1302.64 1391.73 1296.21 1393.69Q1289.78 1395.64 1281.61 1395.64Q1273.63 1395.64 1266.72 1393.95Q1259.81 1392.26 1254.05 1389.36L1259.37 1377.27ZM1331.21 1341.6Q1331.21 1335.46 1333.69 1330.09Q1336.18 1324.73 1340.8 1320.72Q1345.42 1316.7 1351.97 1314.38Q1358.52 1312.06 1366.69 1312.06Q1374.86 1312.06 1381.41 1314.38Q1387.96 1316.7 1392.57 1320.72Q1397.19 1324.73 1399.68 1330.09Q1402.17 1335.46 1402.17 1341.6Q1402.17 1347.74 1399.68 1353.1Q1397.19 1358.47 1392.57 1362.48Q1387.96 1366.49 1381.41 1368.81Q1374.86 1371.14 1366.69 1371.14Q1358.52 1371.14 1351.97 1368.81Q1345.42 1366.49 1340.8 1362.48Q1336.18 1358.47 1333.69 1353.1Q1331.21 1347.74 1331.21 1341.6ZM1346.24 1341.6Q1346.24 1345.03 1347.62 1348.1Q1348.99 1351.17 1351.63 1353.52Q1354.26 1355.86 1358.06 1357.24Q1361.85 1358.62 1366.69 1358.62Q1371.52 1358.62 1375.32 1357.24Q1379.11 1355.86 1381.74 1353.52Q1384.38 1351.17 1385.76 1348.1Q1387.13 1345.03 1387.13 1341.6Q1387.13 1338.17 1385.76 1335.07Q1384.38 1331.98 1381.74 1329.64Q1379.11 1327.29 1375.32 1325.91Q1371.52 1324.54 1366.69 1324.54Q1361.85 1324.54 1358.06 1325.91Q1354.26 1327.29 1351.63 1329.64Q1348.99 1331.98 1347.62 1335.07Q1346.24 1338.17 1346.24 1341.6ZM1416.62 1313.03L1430.88 1313.03L1430.88 1340.87Q1430.88 1344.84 1431.75 1348.1Q1432.62 1351.36 1434.72 1353.68Q1436.83 1356 1440.33 1357.29Q1443.84 1358.57 1449.06 1358.57Q1451.52 1358.57 1454.06 1358.04Q1456.6 1357.5 1458.92 1356.56Q1461.24 1355.62 1463.25 1354.31Q1465.25 1353.01 1466.7 1351.46L1466.7 1313.03L1481.01 1313.03L1481.01 1370.12L1466.7 1370.12L1466.7 1365.24Q1461.43 1368.38 1456.12 1369.73Q1450.8 1371.09 1446.01 1371.09Q1438.18 1371.09 1432.6 1369.2Q1427.01 1367.32 1423.46 1363.71Q1419.91 1360.11 1418.27 1354.87Q1416.62 1349.62 1416.62 1342.9L1416.62 1313.03ZM1499.19 1313.08L1513.49 1313.08L1513.49 1321.3Q1518.23 1317.77 1523.5 1315.21Q1528.77 1312.64 1533.99 1311.29L1538.2 1324.39Q1529.93 1325.21 1523.67 1328.09Q1517.41 1330.96 1513.49 1336.19L1513.49 1370.12L1499.19 1370.12L1499.19 1313.08ZM1583.97 1352.62Q1589.77 1356.1 1596.74 1357.74Q1603.7 1359.39 1611 1359.39Q1615.93 1359.39 1619.21 1358.71Q1622.5 1358.04 1624.48 1356.97Q1626.46 1355.91 1627.29 1354.55Q1628.11 1353.2 1628.11 1351.8Q1628.11 1349.77 1626.34 1348.32Q1624.58 1346.87 1620.52 1346.87Q1618.63 1346.87 1616.46 1347.11Q1614.28 1347.35 1611.89 1347.62Q1609.5 1347.88 1606.91 1348.13Q1604.33 1348.37 1601.67 1348.37Q1595.87 1348.37 1591.78 1347.11Q1587.7 1345.85 1585.13 1343.68Q1582.57 1341.5 1581.41 1338.53Q1580.25 1335.56 1580.25 1332.12Q1580.25 1327.77 1582.28 1324.1Q1584.31 1320.43 1588.08 1317.74Q1591.85 1315.06 1597.2 1313.56Q1602.54 1312.06 1609.11 1312.06Q1612.54 1312.06 1616.29 1312.47Q1620.04 1312.89 1623.66 1313.56Q1627.29 1314.24 1630.62 1315.13Q1633.96 1316.03 1636.52 1317.04L1632.02 1328.16Q1626.56 1326.13 1621.12 1324.95Q1615.69 1323.76 1609.93 1323.76Q1605.92 1323.76 1603.14 1324.37Q1600.36 1324.97 1598.62 1325.96Q1596.88 1326.95 1596.08 1328.23Q1595.29 1329.51 1595.29 1330.92Q1595.29 1331.93 1595.7 1332.75Q1596.11 1333.58 1597.05 1334.18Q1597.99 1334.78 1599.52 1335.1Q1601.04 1335.41 1603.26 1335.41Q1605.29 1335.41 1607.56 1335.17Q1609.84 1334.93 1612.3 1334.66Q1614.77 1334.4 1617.4 1334.16Q1620.04 1333.91 1622.79 1333.91Q1627.92 1333.91 1631.76 1335.12Q1635.6 1336.33 1638.11 1338.51Q1640.63 1340.68 1641.89 1343.63Q1643.14 1346.58 1643.14 1350.06Q1643.14 1354.55 1641.06 1358.42Q1638.98 1362.29 1634.88 1365.12Q1630.77 1367.94 1624.65 1369.54Q1618.54 1371.14 1610.51 1371.14Q1605.58 1371.14 1600.99 1370.53Q1596.4 1369.93 1592.24 1368.89Q1588.08 1367.85 1584.43 1366.45Q1580.78 1365.04 1577.79 1363.45L1583.97 1352.62ZM1664.6 1323.81L1650.83 1323.81L1650.83 1313.08L1664.6 1313.08L1664.6 1295.34L1678.91 1295.34L1678.91 1313.08L1692.69 1313.08L1692.69 1323.81L1678.91 1323.81L1678.91 1370.12L1664.6 1370.12L1664.6 1323.81ZM1701 1341.84Q1701 1335.03 1703.57 1329.54Q1706.13 1324.05 1710.65 1320.16Q1715.17 1316.27 1721.38 1314.17Q1727.59 1312.06 1734.84 1312.06Q1737.94 1312.06 1740.96 1312.45Q1743.98 1312.84 1746.76 1313.51Q1749.54 1314.19 1751.98 1315.13Q1754.42 1316.08 1756.31 1317.19L1756.31 1289.92L1770.61 1289.92L1770.61 1370.12L1756.31 1370.12L1756.31 1364.75Q1754.42 1366.06 1751.86 1367.22Q1749.3 1368.38 1746.35 1369.25Q1743.4 1370.12 1740.23 1370.63Q1737.07 1371.14 1733.97 1371.14Q1726.72 1371.14 1720.66 1369.01Q1714.59 1366.88 1710.24 1363.01Q1705.89 1359.15 1703.45 1353.76Q1701 1348.37 1701 1341.84ZM1716.04 1341.84Q1716.04 1345.27 1717.42 1348.32Q1718.79 1351.36 1721.38 1353.66Q1723.97 1355.96 1727.62 1357.29Q1731.27 1358.62 1735.81 1358.62Q1738.71 1358.62 1741.61 1358.06Q1744.51 1357.5 1747.19 1356.49Q1749.88 1355.47 1752.22 1354.02Q1754.57 1352.57 1756.31 1350.78L1756.31 1331.01Q1754.13 1329.27 1751.71 1328.06Q1749.3 1326.86 1746.78 1326.08Q1744.27 1325.31 1741.71 1324.95Q1739.15 1324.58 1736.73 1324.58Q1731.8 1324.58 1727.95 1325.91Q1724.11 1327.24 1721.48 1329.56Q1718.84 1331.88 1717.44 1335.03Q1716.04 1338.17 1716.04 1341.84ZM1788.5 1289.92L1802.81 1289.92L1802.81 1370.12L1788.5 1370.12L1788.5 1289.92ZM1828.67 1305.3Q1826.54 1305.3 1824.83 1304.69Q1823.11 1304.09 1821.9 1303.05Q1820.69 1302.01 1820.04 1300.63Q1819.39 1299.25 1819.39 1297.71Q1819.39 1296.11 1820.04 1294.73Q1820.69 1293.36 1821.9 1292.34Q1823.11 1291.33 1824.83 1290.72Q1826.54 1290.12 1828.67 1290.12Q1830.85 1290.12 1832.56 1290.72Q1834.28 1291.33 1835.49 1292.34Q1836.69 1293.36 1837.35 1294.73Q1838 1296.11 1838 1297.71Q1838 1299.25 1837.35 1300.63Q1836.69 1302.01 1835.49 1303.05Q1834.28 1304.09 1832.56 1304.69Q1830.85 1305.3 1828.67 1305.3ZM1821.52 1313.08L1835.82 1313.08L1835.82 1370.12L1821.52 1370.12L1821.52 1313.08ZM1853.76 1289.92L1868.07 1289.92L1868.07 1318.44Q1869.95 1317.14 1872.51 1315.98Q1875.08 1314.82 1878.03 1313.95Q1880.97 1313.08 1884.12 1312.57Q1887.26 1312.06 1890.4 1312.06Q1897.65 1312.06 1903.72 1314.19Q1909.78 1316.32 1914.14 1320.18Q1918.49 1324.05 1920.93 1329.44Q1923.37 1334.83 1923.37 1341.36Q1923.37 1348.17 1920.81 1353.66Q1918.24 1359.15 1913.72 1363.04Q1909.2 1366.93 1902.99 1369.03Q1896.78 1371.14 1889.53 1371.14Q1886.44 1371.14 1883.42 1370.75Q1880.39 1370.36 1877.61 1369.68Q1874.83 1369.01 1872.39 1368.07Q1869.95 1367.12 1868.07 1366.01L1868.07 1370.12L1853.76 1370.12L1853.76 1289.92ZM1868.07 1352.19Q1870.24 1353.93 1872.66 1355.13Q1875.08 1356.34 1877.59 1357.12Q1880.1 1357.89 1882.67 1358.25Q1885.23 1358.62 1887.65 1358.62Q1892.58 1358.62 1896.42 1357.29Q1900.26 1355.96 1902.9 1353.64Q1905.53 1351.32 1906.93 1348.17Q1908.33 1345.03 1908.33 1341.36Q1908.33 1337.93 1906.96 1334.88Q1905.58 1331.83 1902.99 1329.54Q1900.41 1327.24 1896.76 1325.91Q1893.11 1324.58 1888.56 1324.58Q1885.66 1324.58 1882.76 1325.14Q1879.86 1325.7 1877.18 1326.71Q1874.5 1327.73 1872.15 1329.18Q1869.81 1330.63 1868.07 1332.41L1868.07 1352.19ZM1933.18 1341.74Q1933.18 1335.46 1935.48 1330.02Q1937.77 1324.58 1942.2 1320.6Q1946.62 1316.61 1953.02 1314.34Q1959.43 1312.06 1967.65 1312.06Q1971.22 1312.06 1974.85 1312.5Q1978.48 1312.93 1981.84 1313.73Q1985.19 1314.53 1988.14 1315.62Q1991.09 1316.7 1993.27 1318.01L1986.65 1328.79Q1981.96 1326.61 1977.77 1325.6Q1973.59 1324.58 1969.29 1324.58Q1964.36 1324.58 1960.44 1325.86Q1956.53 1327.15 1953.8 1329.44Q1951.07 1331.74 1949.64 1334.86Q1948.21 1337.97 1948.21 1341.65Q1948.21 1345.32 1949.74 1348.44Q1951.26 1351.56 1954.04 1353.81Q1956.82 1356.05 1960.76 1357.33Q1964.7 1358.62 1969.53 1358.62Q1974.85 1358.62 1979.56 1357.12Q1984.28 1355.62 1988.34 1353.1L1994.96 1363.88Q1992.4 1365.43 1989.4 1366.76Q1986.4 1368.09 1983 1369.06Q1979.59 1370.02 1975.84 1370.58Q1972.09 1371.14 1968.08 1371.14Q1959.91 1371.14 1953.44 1368.91Q1946.96 1366.69 1942.46 1362.75Q1937.97 1358.81 1935.57 1353.44Q1933.18 1348.08 1933.18 1341.74Z"/></svg>