<?xml version="1.0" encoding="utf-8" ?><svg xmlns="http://www.w3.org/2000/svg" xmlns:xlink="http://www.w3.org/1999/xlink" width="1024" height="1024" viewBox="0 0 1024 1024"><path fill="#FDEBAF" transform="matrix(-1 0 0 1 1024 0)" d="M329.949 49.2535C333.884 58.6001 340.352 69.1049 345.424 77.8915C368.82 118.424 399.185 154.42 433.15 186.477C463.299 214.933 495.047 242.146 516.855 277.953C519.212 281.016 524.908 294.117 527.471 295.549C548.331 307.207 568.437 318.657 588.17 332.239C630.368 361.283 668.365 395.808 700.19 436.011C715.932 455.897 729.172 476.434 741.88 498.307C723.977 483.451 708.925 479.487 688.87 471.189C690.818 474.455 693.505 478.361 695.716 481.468C714.358 507.667 723.98 536.544 734.689 566.502C722.449 553.914 707.745 543.102 691.689 535.918C706.767 565.622 717.178 605.528 718.188 638.839C710.076 624.669 697.275 612.356 684.316 602.658C694.936 631.694 699.687 681.275 694.767 711.995C687.466 699.184 686.051 684.792 673.467 671.476C672.907 673.531 671.845 677.868 670.327 679.206C667.984 675.961 663.418 653.982 662.092 648.594C671.668 656.919 682.721 671.183 689.571 681.789C689.199 672.772 688.37 662.487 687.537 653.552C686.763 650.379 686.158 642.744 682.656 642.236C681.412 642.841 680.588 643.331 679.172 643.429C665.306 630.13 655.971 622.907 637.256 616.379C653.903 640.453 669.009 684.36 671.142 713.467C672.329 729.679 671.163 742.58 671.595 757.83C667.919 750.024 665.425 741.968 662.033 734.242C653.736 715.344 644.044 693.41 632.734 676.12C616.603 707.04 590.468 738.231 568.379 765.2C541.237 798.337 513.443 831.666 482.666 861.504C460.431 883.061 434.759 903.506 409.431 921.409C399.716 928.275 376.622 943.233 365.687 947.278L365.278 947.554C363.558 948.734 363.345 948.938 361.94 950.45L361.489 950.345L361.577 947.979C361.044 939.399 362.795 929.091 361.984 920.625C361.996 917.558 362.972 911.834 363.303 908.533C364.351 898.082 366.284 886.831 366.521 876.368C359.688 895.116 351.801 913.235 343.874 931.554C341.287 937.533 338.781 937.773 332.8 939.914C334.083 937.3 335.158 934.44 336.308 931.704C368.193 855.821 398.295 777.63 409.953 695.722C411.883 682.162 413.052 664.239 403.666 653.184C390.943 638.198 369.933 628.788 350.342 627.981C338.133 628.215 324.788 632.299 313.185 635.639C271.633 647.593 231.669 663.973 193.108 683.456C182.327 688.902 172.991 695.622 160.446 693.978C122.391 688.989 88.6137 665.348 65.1233 635.806C96.2492 601.038 142.426 571.993 176.547 539.49C186.829 529.696 198.261 521.734 207.69 510.698C219.466 496.912 223.594 480.744 228.784 463.865C242.306 419.921 259.955 400.789 293.763 370.613C246.08 285.068 202.539 179.244 202.974 80.2447C225.777 129.375 261.376 171.408 300.564 208.445C315.576 222.362 331.234 235.702 345.996 249.879C354.531 258.076 362.541 267.673 369.919 276.895C348.329 198.538 329.416 132.166 329.949 49.2535ZM343.256 324.434C343.78 326.259 344.279 328.822 345.47 330.177L346.559 330.312C357.454 323.288 368.776 316.78 380.294 310.836C371.099 291.799 362.545 276.567 347.636 261.073C342.31 255.538 336.158 250.44 330.749 244.963C321.514 242.258 325.112 251.126 325.114 256.09C325.12 267.699 326.941 276.026 330.223 287.093C335.742 300.549 339.405 310.319 343.256 324.434Z"/><path fill="#3E204D" transform="matrix(-1 0 0 1 1024 0)" d="M337.341 77.849C340.558 82.3025 342.88 87.4857 345.749 92.197C371.351 134.241 405.532 171.155 441.579 204.41C458.984 220.467 476.675 235.895 491.44 254.502C517.637 287.129 535.664 325.006 552.737 362.935C554.56 366.983 556.963 371.49 559.24 375.33C678.874 577.059 525.44 805.056 373.604 939.065C371.89 940.578 366.31 945.333 365.687 947.278L365.278 947.554C363.558 948.734 363.345 948.938 361.94 950.45L361.489 950.345L361.577 947.979C363.734 944.606 365.609 926.528 366.188 921.539C370.064 917.745 375.433 913.911 379.663 910.09C388.263 902.32 397.483 894.386 405.538 886.033C444.316 845.755 481.542 796.683 492.548 740.895C502.973 688.042 474.767 625.717 417.732 618.343C411.507 617.538 403.943 617.095 398.008 616.031L397.575 615.949C409.003 614.785 420.221 613.85 431.669 612.941C431.863 610.319 431.939 607.462 432.056 604.815C439.259 600.515 446.455 595.944 453.585 591.503C479.152 610.18 500.264 635.336 511.5 665.105C522.275 693.652 522.535 721.612 521.949 751.566C523.927 748.728 527.689 743.543 528.357 740.282C530.398 730.314 529.056 711.655 527.656 701.722C520.565 651.404 498.111 617.328 458.455 586.993C464.324 582.468 485.226 567.163 490.985 565.268C492.045 564.322 494.242 562.827 495.467 561.935C493.741 559.668 491.833 557.712 489.893 555.627C498.494 550.504 504.914 546.232 512.582 539.737C506.138 533.917 499.118 528.263 492.086 523.17C476.65 511.991 461.764 500.791 445.759 490.427C478.66 481.138 510.181 482.973 540.885 498.492C562.297 509.315 578.351 522.822 591.89 542.586C591.944 540.152 592.169 534.291 591.391 532.392C585.28 517.476 559.328 500.212 545.504 493.394C510.146 475.954 478.098 473.29 440.62 485.893C428.328 478.407 419.793 472.921 405.908 468.447C422.548 458.815 442.268 440.609 460.647 437.865C495.037 432.732 534.468 442.382 564.678 459.178C573.038 463.826 579.636 468.861 587.262 474.08L585.229 464.759C562.48 446.574 534.673 436.905 506.302 432.268C493.487 430.174 461.118 428.011 450.115 432.986C437.121 438.86 412.484 457.353 400.022 466.485L395.103 464.496C410.913 450.421 430.969 438.125 447.756 424.919C464.892 411.439 475.778 404.338 485.299 383.965C475.047 390.082 462.753 398.608 452.605 405.231L397.964 440.923C388.985 446.904 379.49 454.858 370.087 459.974C366.029 462.182 355.263 464.116 349.802 465.627C327.931 471.679 301.484 476.57 281.857 488.137C279.93 489.273 273.127 496.782 271.461 498.741C270.155 498.045 269.294 497.425 268.074 496.605C269.852 493.678 273.006 488.296 275.146 485.896C292.827 466.072 325.867 463.215 347.382 449.764C357.919 443.176 371.92 431.52 381.8 423.652C394.427 413.596 408.2 402.97 419.981 392.117C416.863 383.299 413.725 374.603 410.104 365.946C379.407 292.549 356.225 214.881 343.657 136.279C340.544 116.815 338.887 97.4391 337.341 77.849Z"/><path fill="#FDEBAF" transform="matrix(-1 0 0 1 1024 0)" d="M490.985 565.268C492.825 564.606 494.218 564.074 496.003 563.281C521.268 586.753 540.934 610.095 553.643 642.742C557.535 652.741 560.248 662.62 563.405 672.848L560.409 681.939L558.523 686.963C550.236 646.088 535.72 611.141 505.064 581.725C502.69 579.447 490.271 567.903 490.985 565.268Z"/><path fill="#FDEBAF" transform="matrix(-1 0 0 1 1024 0)" d="M348.693 112.714C352.447 115.307 364.349 135.602 368.345 140.695C374.208 148.843 380.531 156.569 386.647 164.526C421.469 209.826 466.379 247.827 479.411 306.098C484.215 327.577 486.071 345.982 488.14 367.572C475.819 348.286 463.026 330.404 449.807 311.759C441.715 300.723 433.964 289.98 426.278 278.657C431.724 305.206 431.391 341.489 430.9 368.507C420.33 336.928 404.057 304.684 391.685 273.354C370.479 219.656 359.003 169.141 348.693 112.714Z"/><path fill="#FDEBAF" transform="matrix(-1 0 0 1 1024 0)" d="M489.063 517.898C508.801 521.506 542.878 549.536 556.255 565.164C565.002 575.383 578.84 591.313 582.472 604.666C582.85 606.058 582.374 614.495 582.275 616.617C580.406 614.953 573.566 599.834 571.706 596.597C552.138 562.525 519.466 542.153 489.063 517.898Z"/><path fill="#3E204D" transform="matrix(-1 0 0 1 1024 0)" d="M532.596 306.226C606.568 346.576 674.34 404.058 720.055 475.361C699.805 467.057 686.587 462.324 665.59 456.136C694.574 488.243 702.218 503.511 719.377 543.019C705.053 534.956 690.87 525.645 675.183 520.293C685.809 540.893 694.928 558.69 701.524 581.191C704.932 592.816 706.956 604.198 710.052 615.601C697.417 603.428 686.803 594.985 671.694 585.657C677.316 602.563 687.318 635.859 687.537 653.552C686.763 650.379 686.158 642.744 682.656 642.236C681.412 642.841 680.588 643.331 679.172 643.429C674.218 608.46 662.375 578.253 639.019 551.257C660.737 558.598 678.419 566.198 694.163 583.862C684.307 546.623 662.436 509.935 629.57 488.83C657.917 491.754 673.59 497.137 697.466 512.751C678.486 480.357 648.222 444.716 613.378 428.936C641.963 429.077 654.415 429.821 681.421 440.49C647.085 402.988 614.54 371.091 571.107 343.779C561.533 337.758 553.316 331.921 543.108 326.683C539.654 319.725 536.326 313.036 532.596 306.226Z"/><path fill="#3E204D" transform="matrix(-1 0 0 1 1024 0)" d="M409.848 740.522L414.015 739.982C410.359 789.309 398.818 823.81 380.797 870.171C375.818 882.977 364.994 908.249 361.984 920.625C361.996 917.558 362.972 911.834 363.303 908.533C364.351 898.082 366.284 886.831 366.521 876.368C381.673 838.29 394.112 798.614 405.324 759.21C407.123 752.886 408.606 746.977 409.848 740.522Z"/><path fill="#3E204D" transform="matrix(-1 0 0 1 1024 0)" d="M268.074 496.605C269.294 497.425 270.155 498.045 271.461 498.741C266.429 504.472 261.748 509.721 256.496 515.261C260.285 508.843 264.044 502.878 268.074 496.605Z"/><path fill="#3E204D" transform="matrix(-1 0 0 1 1024 0)" d="M413.214 723.943C415.058 726.927 413.37 731.126 414.053 735.714L414.015 739.982L409.848 740.522L413.214 723.943Z"/><path fill="#3E204D" transform="matrix(-1 0 0 1 1024 0)" d="M414.278 715.17C414.492 721.01 414.871 730.152 414.053 735.714C413.37 731.126 415.058 726.927 413.214 723.943C413.524 721.071 413.788 718.001 414.278 715.17Z"/><path fill="#3E204D" transform="matrix(-1 0 0 1 1024 0)" d="M382.474 317.729C383.455 318.531 385.642 325.628 386.201 327.309C353.57 343.235 324.102 367.303 297.104 391.318C286.833 400.453 276.81 409.132 268.145 419.911C260.559 429.348 256.518 437.232 251.696 448.163C242.54 468.915 238.949 497.303 225.275 515.143C215.519 527.871 198.742 541.521 186.496 552.009C160.17 574.557 132.73 595.905 106.13 618.164C107.919 618.087 111.048 617.923 112.737 618.207C139.853 622.766 124.157 647.241 114.95 658.768L115.458 659.589C118.78 664.935 121.162 667.519 126.952 670.237C139.177 675.906 151.599 675.124 163.324 668.698C182.984 657.923 193.381 639.346 203.649 620.401C206.851 614.493 210.055 606.677 215.895 603.089C241.226 587.528 268.837 576.447 296.085 564.811C320.749 553.909 341.696 536.77 362.724 520.235C371.126 513.628 379.14 506.405 388.203 500.746C408.972 504.841 442.923 523.564 456.512 539.641C454.145 545.462 450.339 548.673 445.871 552.87L446.319 552.636C450.394 550.455 462.376 541.35 457.4 536.417C439.763 518.928 411.851 502.813 387.699 497.752C365.966 511.84 348.574 530.426 321.981 538.386C306.783 542.935 286.952 546.585 272.194 539.154C285.386 541.229 292.955 539.942 305.756 537.273C311.626 535.402 317.874 533.518 323.34 530.712C347.035 518.543 364.051 497.047 378.831 475.598C428.508 484.248 461.011 510.902 500.559 539.876C493.768 544.672 484.642 549.881 477.377 554.461L485.806 559.658C471.743 568.918 458.236 578.889 444.465 588.554C436.12 594.411 429.758 599.137 423.127 606.987C402.368 612.36 378.521 613.861 357.161 617.863C292.215 630.034 231.652 655.342 173.133 685.363C163.634 690.236 152.381 685.946 142.942 683.119C114.254 674.303 94.6392 657.527 74.368 636.529C82.8567 625.488 106.079 607.242 117.507 597.923L172.301 552.32C185.747 540.924 198.578 530.286 210.849 517.515C227.483 500.593 231.337 476.87 239.237 455.236C247.644 432.212 255.682 418.448 272.931 400.766C304.697 368.203 342.403 339.291 382.474 317.729Z"/><path fill="#FDEBAF" transform="matrix(-1 0 0 1 1024 0)" d="M103.795 623.646C112.339 622.755 115.175 623.04 122.198 627.858L106.375 639.783C106.419 646.235 106.882 650.481 107.797 656.814L103.707 654.666C93.0502 648.646 88.5558 644.661 80.5109 635.66C87.7921 628.366 93.8555 625.297 103.795 623.646Z"/><path fill="#FDEBAF" transform="matrix(-1 0 0 1 1024 0)" d="M269.228 609.603L271.147 609.639C270.297 611.372 252.349 617.032 248.922 618.776C231.694 627.544 215.898 638.235 201.472 651.106L199.443 652.563L199.329 652.28C216.422 633.21 244.45 615.349 269.228 609.603Z"/><defs><linearGradient id="gradient_0" gradientUnits="userSpaceOnUse" x1="438.80438" y1="894.6402" x2="416.8374" y2="619.79645"><stop offset="0" stop-color="#3E204D"/><stop offset="1" stop-color="#6F2588"/></linearGradient></defs><path fill="url(#gradient_0)" transform="matrix(-1 0 0 1 1024 0)" d="M368.48 623.415C393.776 620.828 425.658 621.914 447.351 636.354C466.667 649.213 480.865 674.476 485.072 696.995C493.005 739.46 466.661 790.966 443.51 825.038C427.442 849.656 401.459 878.353 379.572 898.356C379.234 898.834 376.555 901.59 375.99 902.193C380.878 889.188 385.232 875.878 390.062 862.814C396.741 844.751 403.582 826.345 409.055 807.891C418.557 775.855 422.4 742.234 422.109 708.88C421.957 694.421 421.464 678.277 417.068 664.492C411.707 647.68 399.41 637.595 383.897 630.247C378.829 627.846 373.532 625.931 368.48 623.415Z"/><path fill="#FDEBAF" transform="matrix(-1 0 0 1 1024 0)" d="M439.786 824.265C441.483 824.481 441.857 824.477 443.51 825.038C427.442 849.656 401.459 878.353 379.572 898.356C380.526 896.079 379.456 896.04 380.681 894.404C388.18 871.479 395.737 851.87 404.853 829.614C416.353 827.64 427.825 826.44 439.786 824.265Z"/><path fill="#3E204D" transform="matrix(-1 0 0 1 1024 0)" d="M439.786 824.265C441.483 824.481 441.857 824.477 443.51 825.038C427.442 849.656 401.459 878.353 379.572 898.356C380.526 896.079 379.456 896.04 380.681 894.404C380.818 894.401 380.954 894.398 381.091 894.395C397.327 883.26 431.549 837.768 439.786 824.265Z"/><path fill="#FDEBAF" transform="matrix(-1 0 0 1 1024 0)" d="M469.533 666.406C478.858 670.928 481.389 707.565 481.506 718.089C468.927 727.015 452.09 731.359 437.397 735.517C433.913 736.191 430.402 736.967 426.926 737.705C427.756 720.249 428.363 704.253 426.872 686.82C443.044 683.474 456.045 675.298 469.533 666.406Z"/><path fill="#FDEBAF" transform="matrix(-1 0 0 1 1024 0)" d="M476.756 744.914L477.399 744.857L477.938 745.47C477.696 754.238 460.164 789.134 455.351 798.697C441.18 802.157 428.336 805.045 413.965 807.763C412.857 807.39 413.292 807.724 412.646 806.778C417.894 789.53 421.289 777.356 424.741 759.708C430.264 758.201 438.039 757.285 444.024 755.89C455.649 753.18 465.861 749.739 476.756 744.914Z"/><path fill="#FDEBAF" transform="matrix(-1 0 0 1 1024 0)" d="M480.425 725.495C481.404 727.474 479.671 733.938 479.173 736.275C462.492 746.422 446.122 751.127 426.67 752.781L426.126 752.213C425.584 749.26 425.879 746.252 426.002 743.227C447.054 739.939 461.402 734.658 480.425 725.495Z"/><path fill="#FDEBAF" transform="matrix(-1 0 0 1 1024 0)" d="M448.985 806.123L450.084 805.924L450.702 806.357C450.392 809.289 445.777 814.884 443.808 817.503C432.762 820.435 420.319 822.318 408.986 824.211L407.423 823.913C406.52 821.682 409.448 815.669 410.495 813.111C424.602 811.72 435.249 809.177 448.985 806.123Z"/><path fill="#3E204D" transform="matrix(-1 0 0 1 1024 0)" d="M210.503 110.202C215.248 116.379 218.915 123.205 223.156 129.726C244.51 162.561 272.481 191.092 300.831 217.898C310.405 226.95 321.738 235.612 330.749 244.963C321.514 242.258 325.112 251.126 325.114 256.09C325.12 267.699 326.941 276.026 330.223 287.093C335.742 300.549 339.405 310.319 343.256 324.434C343.78 326.259 344.279 328.822 345.47 330.177L346.559 330.312C345.27 331.645 333.273 339.722 330.819 341.506C319.897 349.446 309.19 357.171 299.227 366.369C291.103 352.943 283.995 337.815 276.966 323.753C251.406 272.623 230.698 218.669 218.818 162.664C215.138 145.317 212.853 127.769 210.503 110.202Z"/><path fill="#FDEBAF" transform="matrix(-1 0 0 1 1024 0)" d="M223.249 144.457C231.511 153.152 237.732 164.734 245.398 174.1C265.983 199.251 289.072 221.997 307.911 248.535C317.05 261.408 322.708 273.498 330.223 287.093C335.742 300.549 339.405 310.319 343.256 324.434L342.762 324.646C340.312 323.606 335.021 318.563 332.779 316.523C316.159 301.397 304.184 287.689 292.128 268.827C298.88 296.538 302.883 317.065 303.548 345.486C265.972 283.344 240.031 214.998 223.249 144.457Z"/><path fill="#3E204D" transform="matrix(-1 0 0 1 1024 0)" d="M346.804 478.997C347.233 478.946 346.954 478.937 347.588 479.285C344.84 482.889 337.374 486.44 335.509 490.155C326.505 508.095 318.503 522.323 296.55 525.018C294.825 525.23 287.273 526.29 285.727 527.056C261.395 539.11 239.904 556.108 217.519 571.328C188.916 590.982 160.371 610.357 131.258 629.175L130.395 629.281C132.783 623.825 242.51 547.071 252.462 534.017C258.282 527.898 269.259 517.731 273.134 510.503C288.963 480.972 320.455 488.398 346.13 479.241L346.804 478.997Z"/><path fill="#FDEBAF" transform="matrix(-1 0 0 1 1024 0)" d="M318.392 493.228C320.595 493.105 319.814 492.723 321.108 493.777C323.048 500.063 316.557 508.843 311.662 512.682C302.521 519.852 293.979 520.112 282.884 518.903C281.224 518.709 279.924 518.725 278.499 517.886C278.182 514.437 291.087 498.914 294.897 497.271C301.719 494.328 310.997 493.843 318.392 493.228Z"/><path fill="#3E204D" transform="matrix(-1 0 0 1 1024 0)" d="M284.681 437.065C304.964 405.988 338.243 381.116 367.293 358.562C373.479 353.759 386.369 343.583 392.827 340.526C390.189 344.885 386.389 348.545 382.466 351.762C347.375 380.535 315.316 407.301 286.136 442.395C284.622 441.463 284.855 438.826 284.681 437.065Z"/><path fill="#3E204D" transform="matrix(-1 0 0 1 1024 0)" d="M226.593 532.493C235.395 522.324 247.507 508.429 253.642 496.406C264.39 475.343 271.092 456.913 284.681 437.065C284.855 438.826 284.622 441.463 286.136 442.395C281.774 448.976 274.877 458.225 271.68 465.199C259.037 492.777 251.7 512.946 226.593 532.493Z"/><path fill="#FDEBAF" transform="matrix(-1 0 0 1 1024 0)" d="M519.314 67.3765C538.077 67.4924 558.113 70.7947 576.596 73.8457C759.203 103.933 913.781 251.7 954.374 431.912C986.652 575.206 946.354 726.735 844.989 833.325L834.99 843.452C834.672 837.036 834.059 824.338 835.068 818.322C838.218 814.195 842.958 809.283 846.54 805.385C867.934 782.217 882.829 755.554 897.202 727.729C939.162 646.498 954.532 554.429 940.37 464.18C913.034 289.972 776.826 141.901 606.12 98.7409C578.034 91.6398 548.16 87.726 519.105 85.996C519.029 79.6067 518.92 73.7586 519.314 67.3765Z"/><path fill="#FDEBAF" transform="matrix(-1 0 0 1 1024 0)" d="M710.883 177.046C715.531 179.476 719.95 182.143 724.398 184.846C790.851 225.233 844.466 284.251 879.362 353.643C889.5 373.803 899.727 395.819 905.083 417.905C899.651 418.549 895.27 419.187 889.874 420.168C885.739 420.898 882.398 421.506 878.353 422.57C874.873 415.443 872.824 408.326 869.922 400.971C865.768 390.443 861.24 379.113 856.113 369.013C827.374 312.402 786.363 264.667 735.92 226.198C723.523 216.744 709.71 208.254 696.615 199.956C698.849 195.687 707.988 180.567 710.883 177.046ZM703.187 198.756C768.354 238.783 820.138 291.849 856.367 359.83C866.892 379.58 872.136 397.609 881.065 416.659L899.567 414.353C897.052 405.378 892.875 395.401 889.327 386.754C869.702 338.936 842.499 298.239 807.879 260.147C803.661 255.778 799.457 251.344 795.088 247.129C776.752 226.518 736.003 196.973 712.107 183.32C709.484 187.734 705.308 194.357 703.187 198.756Z"/><path fill="#FDEBAF" transform="matrix(-1 0 0 1 1024 0)" d="M900.932 523.489C891.076 521.289 881.333 515.884 878.778 505.622C870.454 472.912 916.122 459.575 926.617 491.373C931.852 507.234 919.706 519.934 905.008 523.141C904.967 552.983 905.835 586.323 904.766 615.87C897.411 624.692 883.909 636.027 875.035 646.002C875.049 651.853 876.496 685.374 872.52 686.951L871.448 686.32C870.494 683.213 870.869 651.57 870.877 645.713C865.695 650.093 860.275 655.996 855.405 660.807C846.954 669.155 837.561 676.872 832.089 687.546C825.577 700.25 819.828 704.066 806.293 708.053C806.698 714.007 806.49 721.989 806.478 728.085L806.39 761.186L806.12 870.72C804.946 871.764 803.222 873.007 801.947 873.987L802.047 708.938C798.599 709.046 795.447 708.803 792.051 708.42C772.107 706.167 758.733 689.326 761.672 669.257C763.484 656.886 772.114 648.999 780.221 640.072C790.696 628.66 802.116 618.151 813.213 607.351C817.064 603.604 821.423 597.926 825.622 594.808C826.965 594.664 826.269 594.598 827.755 595.769C827.723 600.636 774.749 649.512 769.632 659.325C761.818 674.313 765.536 690.86 778.34 699.46L779.873 700.404C794.639 709.171 818.099 705.083 826.283 689.544C828.822 685.72 831.037 678.873 834.309 675.717C845.26 665.153 856.782 651.376 868.522 641.963C870.211 641.732 869.587 641.716 871.4 642.977C872.729 642.557 896.945 617.85 900.655 614.187C900.409 584.11 900.814 553.607 900.932 523.489ZM906.774 518.924C918.197 516.532 925.487 505.297 923.017 493.891C920.546 482.485 909.261 475.273 897.873 477.821C886.594 480.344 879.466 491.497 881.912 502.793C884.358 514.089 895.462 521.293 906.774 518.924Z"/><path fill="#FDEBAF" transform="matrix(-1 0 0 1 1024 0)" d="M794.152 355.752C781.038 354.102 769.848 342.762 773.041 329.618C780.02 300.895 822.379 309.235 815.357 339.645C813.372 348.241 806.678 352.997 798.51 355.61C798.775 365.85 798.802 376.138 798.654 386.38C811.514 397.66 824.34 408.952 836.582 420.906C840.693 424.92 847.645 431.099 851.069 435.365C851.588 443.27 851.251 453.371 851.193 461.472L851.073 505.128L851.479 585.542C851.474 596.765 851.696 609.07 851.357 620.205C849.031 623.22 846.379 625.973 843.668 628.643C834.055 638.108 824.375 647.755 814.341 656.779C832.451 679.615 807.321 705.688 783.585 690.591L779.708 686.507C767.212 663.194 787.535 643.2 811.707 654.155C823.827 642.26 835.283 630.479 847.65 618.669C846.513 558.713 847.894 497.448 847.305 437.289C840.56 430.056 830.382 420.894 822.955 413.926C815.017 406.479 802.925 394.766 794.548 388.366C793.703 379.159 794.116 365.279 794.152 355.752ZM800.257 691.197C810.37 690.069 817.655 680.959 816.529 670.846C815.404 660.733 806.295 653.446 796.182 654.569C786.065 655.692 778.776 664.805 779.901 674.921C781.027 685.037 790.141 692.325 800.257 691.197ZM798.586 351.125C808.057 348.875 813.921 339.385 811.697 329.908C809.473 320.431 799.999 314.541 790.516 316.74C780.997 318.947 775.079 328.464 777.312 337.978C779.545 347.491 789.078 353.383 798.586 351.125Z"/><path fill="#FDEBAF" transform="matrix(-1 0 0 1 1024 0)" d="M795.461 664.803C798.311 663.715 801.525 664.247 803.873 666.194C806.22 668.141 807.337 671.202 806.796 674.203C806.254 677.205 804.138 679.682 801.258 680.686C796.894 682.208 792.117 679.943 790.532 675.601C788.948 671.26 791.143 666.45 795.461 664.803ZM800.266 677.049C801.995 676.396 803.225 674.847 803.47 673.016C803.715 671.185 802.934 669.367 801.437 668.283C799.941 667.2 797.97 667.026 796.307 667.831C793.889 669 792.819 671.865 793.879 674.333C794.939 676.801 797.753 677.997 800.266 677.049Z"/><path fill="#FDEBAF" transform="matrix(-1 0 0 1 1024 0)" d="M793.697 325.259C798.206 324.58 802.439 327.604 803.258 332.09C804.076 336.575 801.184 340.9 796.726 341.857C793.717 342.502 790.595 341.459 788.579 339.134C786.562 336.809 785.972 333.571 787.037 330.683C788.102 327.796 790.654 325.718 793.697 325.259ZM796.753 338.035C799.301 337.153 800.646 334.368 799.752 331.825C798.859 329.281 796.067 327.949 793.528 328.855C791.005 329.754 789.684 332.523 790.572 335.05C791.459 337.577 794.222 338.911 796.753 338.035Z"/><path fill="#FDEBAF" transform="matrix(-1 0 0 1 1024 0)" d="M647.585 137.714C666.348 135.308 683.532 148.501 686.055 167.248C688.577 185.995 675.489 203.261 656.758 205.898C637.863 208.559 620.413 195.332 617.869 176.421C615.325 157.51 628.659 140.141 647.585 137.714ZM655.764 201.187C672.022 198.943 683.381 183.941 681.13 167.684C678.88 151.427 663.873 140.075 647.617 142.332C631.37 144.589 620.027 159.585 622.276 175.832C624.525 192.079 639.516 203.429 655.764 201.187Z"/><path fill="#FDEBAF" transform="matrix(-1 0 0 1 1024 0)" d="M613.842 866.675C640.388 869.447 636.025 908.345 608.259 901.806C593.913 915.213 580.363 929.373 565.492 942.232C560.395 946.639 563.309 949.122 555.938 953.144L555.661 953.215C550.949 954.477 546.441 954.66 542.236 951.733C536.165 947.508 535.264 938.179 539.96 932.585C543.774 928.042 548.044 927.485 553.525 926.827C565.072 912.926 582.423 898.957 595.286 885.885C597.621 873.547 600.649 868.378 613.842 866.675ZM598.805 887.95C585.319 901.85 570.756 913.393 557.174 928.323C561.349 931.63 561.903 933.208 564.2 937.887L570.668 932.486C582.267 921.548 596.045 908.854 606.792 897.263C632.815 905.14 634.196 868.548 610.213 871.073C601.269 873.992 600.099 879.616 598.805 887.95ZM551.747 950.558C556.62 949.967 560.331 945.906 560.48 941C560.567 938.144 559.42 935.388 557.331 933.438C555.243 931.488 552.415 930.532 549.572 930.814C546.015 931.167 542.923 933.404 541.474 936.671C540.025 939.938 540.443 943.731 542.568 946.605C544.694 949.478 548.199 950.987 551.747 950.558Z"/><path fill="#FDEBAF" transform="matrix(-1 0 0 1 1024 0)" d="M611.612 879.809C614.47 878.782 617.621 880.249 618.676 883.096C619.732 885.943 618.297 889.109 615.461 890.194C613.6 890.905 611.501 890.562 609.964 889.296C608.426 888.03 607.687 886.035 608.028 884.073C608.369 882.11 609.737 880.482 611.612 879.809ZM614.935 886.76C615.812 885.974 615.915 884.636 615.168 883.725C614.421 882.813 613.089 882.652 612.146 883.359C611.499 883.844 611.169 884.645 611.289 885.446C611.409 886.246 611.958 886.916 612.72 887.191C613.481 887.465 614.332 887.3 614.935 886.76Z"/><path fill="#FDEBAF" transform="matrix(-1 0 0 1 1024 0)" d="M718.084 686.334C744.903 659.09 770.752 630.929 797.196 603.334C798.624 601.845 800.716 600.061 802.722 599.589L803.031 599.743C802.914 603.03 796.031 609.548 793.609 612.159L774.701 632.16C753.42 654.533 733.191 677.924 711.555 699.983C709.035 702.552 706.294 705.36 704.03 708.154C704.311 725.515 705.348 743.454 705.447 760.67C714.711 760.703 731.934 760.417 740.474 761.51L741.19 762.324C741.036 763.886 741.346 763.221 740.135 764.341C735.723 765.32 710.661 765.35 704.928 765.199C694.402 776.592 683.268 788.644 672.167 799.523C679.039 808.485 679.518 819.357 670.04 826.717C657.056 836.8 638.82 823.83 643.221 808.492C647.098 794.979 658.124 793.472 669.454 797.136C678.715 786.028 690.806 775.104 700.538 764.112C700.287 754.578 699.826 745.064 699.539 735.531C699.266 726.434 699.411 716.735 698.725 707.695C704.306 700.884 711.206 693.795 717.303 687.332L718.084 686.334ZM662.768 825.664C669.823 824.164 674.37 817.28 672.981 810.202C671.592 803.124 664.781 798.469 657.682 799.747C652.99 800.592 649.117 803.9 647.549 808.403C645.981 812.906 646.962 817.904 650.115 821.48C653.268 825.056 658.104 826.655 662.768 825.664Z"/><path fill="#FDEBAF" transform="matrix(-1 0 0 1 1024 0)" d="M657.759 807.789C660.494 806.506 663.752 807.685 665.032 810.422C666.313 813.159 665.131 816.415 662.393 817.694C659.659 818.97 656.407 817.79 655.128 815.057C653.849 812.323 655.026 809.071 657.759 807.789Z"/><path fill="#FDEBAF" transform="matrix(-1 0 0 1 1024 0)" d="M643.071 730.793C644.487 731.497 643.862 731.008 644.806 732.535C644.868 736.684 630.249 749.227 626.575 753.515L626.182 753.981C627.088 777.002 626.495 803.497 626.518 826.72C638.698 839.071 650.309 850.228 663.012 862.007C668.4 867.004 683.475 880.79 686.982 885.947C687.908 902.087 687.006 918.474 687.611 934.637C687.778 939.102 687.648 943.397 685.338 947.355L684.25 947.109L684.818 947.714C682.575 944.727 683.326 928.788 683.299 924.274L683.026 887.333C677.253 881.027 670.172 874.834 663.956 868.819C650.343 855.648 636.257 842.773 622.791 829.466L622.842 784.476C622.824 775.84 622.514 765.82 622.901 757.285C610.45 767.378 598.11 782.76 585.893 793.514C582.921 796.131 581.519 797.883 581.586 801.875C581.335 819.996 581.507 838.506 581.486 856.658C549.532 889.137 516.607 921.249 483.884 952.987C482.427 954.401 480.613 955.798 478.869 954.339C479.105 951.594 568.857 863.673 577.661 855.021C576.931 837.952 577.483 814.599 577.654 797.222C581.538 792.017 592.675 781.348 597.526 776.303C612.204 761.043 628.655 746.153 643.071 730.793Z"/><path fill="#FDEBAF" transform="matrix(-1 0 0 1 1024 0)" d="M721.636 775.07C741.018 773.389 750.944 800.925 726.971 810.223C727.178 827.258 726.743 844.374 726.878 861.417C726.904 864.758 726.976 868.389 726.631 871.706C743.978 878.014 743.419 893.54 726.582 900.133C726.658 907.273 726.943 919.815 725.251 926.328C724.77 926.645 724.437 926.64 723.823 926.784L723.083 926.007C721.711 921.799 722.326 904.918 722.822 900.215C705.305 895.463 707.208 876.915 722.936 872.143C722.97 851.831 723.09 831.004 722.78 810.704C709.774 806.785 701.958 797.316 709.167 783.052C711.343 778.747 716.973 776.025 721.636 775.07ZM726.74 805.503C731.366 804.413 735.049 800.921 736.386 796.36C737.722 791.8 736.505 786.872 733.199 783.458C729.893 780.044 725.007 778.669 720.406 779.858C713.396 781.669 709.151 788.785 710.887 795.814C712.623 802.842 719.693 807.163 726.74 805.503ZM725.777 895.925C730.29 895.45 733.91 891.98 734.576 887.491C735.032 884.422 734.029 881.316 731.865 879.092C729.701 876.868 726.623 875.782 723.543 876.154C718.117 876.809 714.236 881.718 714.849 887.148C715.463 892.578 720.342 896.497 725.777 895.925Z"/><path fill="#FDEBAF" transform="matrix(-1 0 0 1 1024 0)" d="M722.53 787.611C725.49 786.817 728.528 788.59 729.294 791.556C730.059 794.523 728.258 797.544 725.285 798.282C722.351 799.01 719.378 797.238 718.623 794.311C717.867 791.384 719.611 788.394 722.53 787.611Z"/><path fill="#FDEBAF" transform="matrix(-1 0 0 1 1024 0)" d="M722.018 369.578C725.061 370.485 746.988 394.003 750.564 397.614L805.569 452.141L805.464 503.768C805.43 512.987 805.615 523.5 805.194 532.568C826.449 539.654 823.065 564.889 802.799 568.266C782.937 567.485 778.005 543.988 794.791 534.602C796.482 533.656 799.539 532.917 801.492 532.38L801.491 486.878C801.485 476.116 801.656 465.066 800.945 454.35C775.515 427.315 747.304 400.058 721.461 373.269C720.689 372.469 721.678 370.53 722.018 369.578ZM805.189 564.081C812.747 562.477 817.572 555.049 815.965 547.492C814.359 539.935 806.929 535.112 799.373 536.721C791.82 538.329 787 545.755 788.605 553.308C790.211 560.862 797.635 565.684 805.189 564.081Z"/><path fill="#FDEBAF" transform="matrix(-1 0 0 1 1024 0)" d="M800.482 543.783C802.891 543.082 805.49 543.736 807.282 545.491C809.075 547.247 809.781 549.833 809.13 552.256C808.479 554.679 806.572 556.562 804.141 557.184C800.467 558.123 796.718 555.942 795.719 552.283C794.721 548.625 796.84 544.841 800.482 543.783ZM804.209 553.915C806.066 553.047 806.909 550.87 806.121 548.977C805.333 547.085 803.194 546.149 801.27 546.855C799.95 547.34 799.002 548.509 798.801 549.901C798.6 551.293 799.178 552.683 800.308 553.521C801.437 554.359 802.935 554.51 804.209 553.915Z"/><path fill="#FDEBAF" transform="matrix(-1 0 0 1 1024 0)" d="M765.744 701.613C767.799 702.206 767.587 701.808 768.793 703.158C769.374 709.323 769.055 720.528 769.039 727.034C769.022 733.494 769.336 744.769 768.735 750.855C789.114 757.936 787.632 778.263 768.495 784.795L768.52 857.804C768.526 863.723 769.057 898.455 767.744 900.709C766.183 901.871 765.99 902.445 764.375 902.559C764.033 901.88 763.959 901.771 763.961 900.984L764.531 785.07C750.162 780.374 747.047 764.482 758.58 754.313C760.099 752.975 762.989 751.947 764.938 751.177C764.906 738.095 764.266 713.813 765.744 701.613ZM769.13 781.33C785.248 774.773 782.095 754.75 766.359 755.049C751.473 759.528 752.681 780.475 769.13 781.33Z"/><path fill="#FDEBAF" transform="matrix(-1 0 0 1 1024 0)" d="M766.6 762.732C769.355 762.063 772.136 763.73 772.845 766.474C773.554 769.219 771.928 772.024 769.194 772.772C767.39 773.266 765.459 772.75 764.142 771.422C762.825 770.094 762.326 768.159 762.835 766.36C763.344 764.56 764.783 763.174 766.6 762.732ZM768.79 771.165C769.827 769.532 770.413 768.94 770.52 767.003C769.852 765.463 769.672 765.116 767.849 764.219C766.743 765.749 766.041 766.395 765.86 768.27C766.533 769.943 766.846 770.215 768.79 771.165Z"/><path fill="#FDEBAF" transform="matrix(-1 0 0 1 1024 0)" d="M84.7197 588.929C76.0749 547.633 77.7769 494.566 85.6053 453.556C97.948 388.897 125.38 327.391 166.431 275.877C176.787 262.883 190.343 246.261 204.084 236.87C199.803 243.055 187.787 255.577 182.278 262.057C121.98 332.979 85.2383 423.134 82.6056 516.47C81.9023 541.407 84.6379 562.074 86.6591 586.776C87.0212 589.77 87.8166 594.17 86.9097 596.914C85.4844 596.116 84.9692 590.679 84.7197 588.929Z"/><path fill="#FDEBAF" transform="matrix(-1 0 0 1 1024 0)" d="M839.103 731.842C848.633 729.499 858.245 735.375 860.505 744.924C862.765 754.474 856.807 764.035 847.238 766.212C837.786 768.363 828.366 762.493 826.133 753.06C823.901 743.626 829.689 734.156 839.103 731.842ZM846.238 762.909C853.867 761.261 858.714 753.739 857.065 746.11C855.415 738.481 847.893 733.634 840.264 735.285C832.637 736.935 827.791 744.456 829.44 752.083C831.09 759.711 838.61 764.558 846.238 762.909Z"/><path fill="#FDEBAF" transform="matrix(-1 0 0 1 1024 0)" d="M840.202 742.233C842.666 741.295 845.444 741.754 847.475 743.435C849.507 745.115 850.478 747.758 850.018 750.354C849.558 752.95 847.738 755.098 845.253 755.979C841.473 757.318 837.318 755.367 835.935 751.603C834.551 747.838 836.454 743.661 840.202 742.233ZM843.85 752.883C845.256 752.555 846.375 751.491 846.773 750.103C847.172 748.716 846.789 747.221 845.772 746.196C844.754 745.171 843.262 744.777 841.871 745.165C839.784 745.748 838.545 747.893 839.083 749.992C839.622 752.092 841.739 753.376 843.85 752.883Z"/><path fill="#FDEBAF" transform="matrix(-1 0 0 1 1024 0)" d="M134.984 741.238C137.749 742.565 146.755 758.107 149.226 761.794C192.232 825.973 251.452 879.12 321.561 912.051C322.939 912.698 323.171 913.841 323.5 915.113C321.18 915.531 316.012 913.084 313.773 911.97C245.752 878.147 186.128 825.513 146.051 760.815C142.239 754.66 137.39 748.024 134.984 741.238Z"/><path fill="#FDEBAF" transform="matrix(-1 0 0 1 1024 0)" d="M529.23 852.223L531.035 852.461L531.592 853.231C529.316 859.899 441.055 943.567 429.537 955.688C428.034 955.154 427.816 954.79 427.354 953.522C428.984 949.251 519.177 860.607 529.23 852.223Z"/><path fill="#FDEBAF" transform="matrix(-1 0 0 1 1024 0)" d="M495.259 112.713C496.917 112.407 506.467 112.387 508.451 112.387C531.903 112.386 591.346 117.182 610.158 128.299C601.953 127.929 591.76 124.301 583.405 122.775C570.743 120.462 556.673 118.013 543.887 116.974C540.822 116.445 537.235 116.248 534.106 116.058C505.618 114.321 476.763 115.702 448.704 121.063C444.061 121.95 431.139 125.573 427.53 124.129L427.4 123.323C433.726 117.89 483.998 113.498 495.259 112.713Z"/><path fill="#FDEBAF" transform="matrix(-1 0 0 1 1024 0)" d="M539.179 831.778C545.757 830.393 552.227 834.547 553.706 841.105C555.184 847.662 551.122 854.191 544.586 855.763C540.275 856.799 535.739 855.434 532.717 852.19C529.694 848.946 528.652 844.325 529.991 840.098C531.329 835.871 534.84 832.691 539.179 831.778ZM544.254 852.045C548.738 850.74 551.324 846.058 550.044 841.567C548.763 837.077 544.096 834.464 539.598 835.72C535.065 836.985 532.427 841.698 533.718 846.224C535.009 850.75 539.736 853.361 544.254 852.045Z"/><path fill="#FDEBAF" transform="matrix(-1 0 0 1 1024 0)" d="M642.182 869.808C645.641 871.774 660.699 887.303 663.776 890.712C664.549 902.421 663.633 921.391 663.48 933.884C656.97 939.629 649.703 946.749 643.096 952.097C642.018 951.902 642.388 951.961 641.402 951.233L641.29 950.128C643.138 946.124 655.719 935.553 659.56 932.212L659.539 891.968C655.028 887.174 643.681 877.501 640.459 872.735C640.523 871.309 641.047 871.199 642.182 869.808Z"/><path fill="#FDEBAF" transform="matrix(-1 0 0 1 1024 0)" d="M804.255 576.322C805.448 577.119 805.347 577.188 806.013 578.498C805.303 581.48 775.298 611.005 770.13 616.52C763.493 623.604 752.024 635.021 744.666 642.159C743.17 641.344 743.651 641.923 743.022 640.51C744.193 638.126 762.75 619.296 765.724 616.232L804.255 576.322Z"/><path fill="#FDEBAF" transform="matrix(-1 0 0 1 1024 0)" d="M888.88 685.811C890.629 686.623 889.883 686.052 891.084 687.73C890.962 688.887 891.127 689.109 890.224 690.001C876.634 703.439 863.785 718.123 849.889 731.192C848.181 731.04 848.879 731.356 847.64 730.425C847.638 730.277 847.616 730.128 847.633 729.98C848.213 724.829 882.936 691.714 888.88 685.811Z"/><path fill="#FDEBAF" transform="matrix(-1 0 0 1 1024 0)" d="M518.368 160.912C533.297 161.849 570.546 164.015 585.442 171.064C586.627 171.625 586.431 173.048 586.455 174.206C571.493 170.437 557.139 167.848 541.811 165.912C535.286 165.087 525.433 165.476 519.471 164.097C518.199 162.79 518.602 163.19 518.368 160.912Z"/></svg>